<svg width="48" height="48" viewBox="0 0 48 48" fill="none" xmlns="http://www.w3.org/2000/svg">
<g id="Userstudy_Nugget_Icons_2_affordable feedback 1">
<path id="Vector" d="M35.6999 41.29C33.8799 43.86 30.8699 45.53 27.4799 45.53C21.8899 45.53 17.3599 41 17.3599 35.41C17.3599 29.82 21.8899 25.29 27.4799 25.29C30.7799 25.29 33.7099 26.87 35.5499 29.31C35.0699 29.67 34.6299 30.08 34.2499 30.55C32.7399 28.44 30.2699 27.06 27.4799 27.06C22.8799 27.06 19.1499 30.8 19.1499 35.39C19.1499 39.98 22.8899 43.72 27.4799 43.72C30.3499 43.72 32.8799 42.27 34.3799 40.06C34.7699 40.51 35.2099 40.92 35.7099 41.27L35.6999 41.29Z" fill="#D9DBFF"/>
<path id="Vector_2" d="M32.5599 35.2498C32.5599 34.0498 32.8399 32.9198 33.3599 31.9198C32.1699 29.9198 29.9799 28.5698 27.4799 28.5698C23.6999 28.5698 20.6299 31.6398 20.6299 35.4198C20.6299 39.1998 23.6999 42.2698 27.4799 42.2698C30.0399 42.2698 32.2799 40.8498 33.4499 38.7598C32.8799 37.7198 32.5599 36.5298 32.5599 35.2598V35.2498ZM29.7799 33.4098H27.5999C27.3499 33.4098 27.1499 33.6098 27.1499 33.8598C27.1499 34.1098 27.3599 34.3098 27.5999 34.3098C29.9299 34.1498 30.6199 37.2498 28.4299 38.0598V39.2098H26.9599V38.1598H25.6199V36.6898H27.8299C28.0799 36.6898 28.2799 36.4898 28.2799 36.2398C28.2799 35.9898 28.0799 35.7898 27.8299 35.7898C25.5199 35.9498 24.8099 32.8898 26.9599 32.0598V30.9098H28.4299V31.9498H29.7799V33.4198V33.4098Z" fill="#D9DBFF"/>
<path id="Vector_3" fill-rule="evenodd" clip-rule="evenodd" d="M39.53 29.1802C36.36 29.1802 33.79 31.7502 33.79 34.9202C33.79 38.0902 36.36 40.6602 39.53 40.6602C42.7 40.6602 45.27 38.0902 45.27 34.9202C45.27 31.7502 42.7 29.1802 39.53 29.1802ZM42.78 33.8102C41.65 34.9502 40.52 36.1002 39.38 37.2402C39.05 37.5702 38.51 37.5702 38.18 37.2402L36.29 35.3502C35.96 35.0202 35.96 34.4802 36.29 34.1502C36.62 33.8202 37.16 33.8202 37.49 34.1502L38.77 35.4302L41.56 32.6102C41.89 32.2802 42.43 32.2802 42.76 32.6102C43.09 32.9402 43.09 33.4802 42.76 33.8102H42.78Z" fill="#D9DBFF"/>
<path id="Vector_4" d="M17.1998 21.1001H14.7798V27.2801H17.1998V21.1001Z" fill="#D9DBFF"/>
<path id="Vector_5" d="M17.1398 26.1198C17.3798 27.9898 16.8898 29.6598 15.6298 31.0898C15.0298 31.7698 14.3298 32.3098 13.4898 32.6698C12.6698 33.0198 11.8198 33.2098 10.9198 33.2098C10.8198 33.2098 9.1898 33.2798 7.7598 32.3998C7.3298 32.1598 6.9398 31.8698 6.5898 31.5398C5.9198 30.9098 5.3798 30.1898 5.0498 29.3298C4.7698 28.6198 4.6098 27.8898 4.5998 27.1298C4.5898 25.6798 4.9798 24.3598 5.8898 23.1998C6.5498 22.3498 7.3798 21.6998 8.3698 21.2798C9.3698 20.8498 10.4198 20.6698 11.5098 20.7898C12.5398 20.8998 13.4898 21.2198 14.3498 21.7798C15.1798 22.3098 15.8598 22.9898 16.3598 23.8898C16.7898 24.5598 17.0398 25.3298 17.1398 26.1298V26.1198Z" fill="#D9DBFF"/>
<path id="Vector_6" d="M18.1101 41.3398H2.08008C2.08008 37.5998 5.13008 34.5498 8.88008 34.5498H13.1201C14.3201 34.5498 15.4401 34.8598 16.4101 35.3998C16.4101 37.5898 17.0301 39.6198 18.1101 41.3398Z" fill="#D9DBFF"/>
<path id="Vector_7" d="M43.1798 6.12988H40.7598V12.3099H43.1798V6.12988Z" fill="#D9DBFF"/>
<path id="Vector_8" d="M43.1198 11.1501C43.3598 13.0201 42.8698 14.6901 41.6098 16.1201C41.0098 16.8001 40.3098 17.3401 39.4698 17.7001C38.6498 18.0501 37.7998 18.2401 36.8998 18.2401C36.7998 18.2401 35.1698 18.3101 33.7398 17.4301C33.3098 17.1901 32.9198 16.9001 32.5698 16.5701C31.8998 15.9401 31.3598 15.2201 31.0298 14.3601C30.7498 13.6501 30.5898 12.9201 30.5798 12.1601C30.5698 10.7101 30.9598 9.3901 31.8698 8.2301C32.5298 7.3801 33.3598 6.7301 34.3498 6.3101C35.3498 5.8801 36.3998 5.7001 37.4898 5.8201C38.5198 5.9301 39.4698 6.2501 40.3298 6.8101C41.1598 7.3401 41.8398 8.0201 42.3398 8.9201C42.7698 9.5901 43.0198 10.3601 43.1198 11.1601V11.1501Z" fill="#D9DBFF"/>
<path id="Vector_9" d="M45.9002 26.3698H34.1202C32.5002 25.1798 30.5402 24.4298 28.4102 24.2698C29.2902 21.5398 31.8402 19.5698 34.8602 19.5698H39.1002C42.8502 19.5698 45.9002 22.6198 45.9002 26.3698Z" fill="#D9DBFF"/>
<path id="Vector_10" d="M5.41016 9.24984V15.2098C5.41016 16.5398 6.49016 17.6198 7.82016 17.6198H19.4502L21.9902 19.8298C22.1102 19.9298 22.2602 19.9898 22.4202 19.9898C22.5202 19.9898 22.6102 19.9698 22.7002 19.9298C22.9302 19.8198 23.0802 19.5898 23.0802 19.3298V17.6198H26.6002C27.9302 17.6198 29.0102 16.5398 29.0102 15.2098V9.24984C29.0102 7.91984 27.9302 6.83984 26.6002 6.83984H7.82016C6.49016 6.83984 5.41016 7.91984 5.41016 9.24984ZM15.4602 11.7398C15.4602 11.4098 15.5802 11.0898 15.8102 10.8698C16.0102 10.6698 16.2802 10.5498 16.5602 10.5498C16.9402 10.5498 17.2802 10.7598 17.4802 11.0998C17.6802 10.7698 18.0202 10.5498 18.4002 10.5498C18.6902 10.5498 18.9702 10.6698 19.1802 10.8998C19.3802 11.1198 19.5002 11.4198 19.5002 11.7298C19.5002 11.9998 19.4002 12.2898 19.1902 12.5898C19.0302 12.8198 18.8002 13.0698 18.5202 13.3098C18.0402 13.7198 17.5702 13.9998 17.5502 14.0098C17.5302 14.0198 17.5102 14.0298 17.4902 14.0298C17.4702 14.0298 17.4502 14.0298 17.4302 14.0098C17.4102 13.9998 16.9402 13.7298 16.4702 13.3098C16.1902 13.0698 15.9602 12.8198 15.8002 12.5898C15.5902 12.2898 15.4802 11.9998 15.4802 11.7298L15.4602 11.7398ZM9.43016 11.6598C9.43016 11.6598 9.35016 11.5598 9.35016 11.4998C9.35016 11.3898 9.44016 11.2998 9.55016 11.2998H10.8702L11.2802 10.0498C11.3002 9.96984 11.3802 9.90984 11.4702 9.90984C11.5602 9.90984 11.6402 9.96984 11.6602 10.0498L12.0702 11.2998H13.3902C13.5002 11.2998 13.5902 11.3898 13.5902 11.4998C13.5902 11.5698 13.5602 11.6198 13.5102 11.6598L12.4402 12.4298L12.8502 13.6898C12.8502 13.6898 12.8602 13.7298 12.8602 13.7498C12.8602 13.8598 12.7702 13.9498 12.6602 13.9498C12.6202 13.9498 12.5802 13.9398 12.5402 13.9098L11.4602 13.1298L10.3802 13.9098C10.3802 13.9098 10.3102 13.9498 10.2602 13.9498C10.1502 13.9498 10.0602 13.8598 10.0602 13.7498C10.0602 13.7298 10.0602 13.7098 10.0602 13.6898L10.4702 12.4298L9.40016 11.6598H9.43016ZM21.0402 11.5498C21.0402 11.5498 20.9602 11.4498 20.9602 11.3898C20.9602 11.2798 21.0502 11.1898 21.1602 11.1898H22.4802L22.8902 9.93984C22.9102 9.85984 22.9902 9.79984 23.0802 9.79984C23.1702 9.79984 23.2502 9.85984 23.2702 9.93984L23.6802 11.1898H25.0002C25.1102 11.1898 25.2002 11.2798 25.2002 11.3898C25.2002 11.4598 25.1702 11.5098 25.1202 11.5498L24.0502 12.3198L24.4602 13.5798C24.4602 13.5798 24.4702 13.6198 24.4702 13.6398C24.4702 13.7498 24.3802 13.8398 24.2702 13.8398C24.2302 13.8398 24.1902 13.8298 24.1502 13.7998L23.0702 13.0198L21.9902 13.7998C21.9902 13.7998 21.9202 13.8398 21.8702 13.8398C21.7602 13.8398 21.6702 13.7498 21.6702 13.6398C21.6702 13.6198 21.6702 13.5998 21.6702 13.5798L22.0802 12.3198L21.0102 11.5498H21.0402Z" fill="#D9DBFF"/>
</g>
</svg>
