<svg width="48" height="48" viewBox="0 0 48 48" fill="none" xmlns="http://www.w3.org/2000/svg">
<g id="Userstudy_Nugget_Icons_2_build with input 1">
<g id="Icon_build_with_user_input">
<path id="Vector" d="M26.15 14.3199H22.6V23.3799H26.15V14.3199Z" fill="#D9DBFF"/>
<path id="Vector_2" d="M26.06 21.68C26.41 24.42 25.69 26.87 23.85 28.97C22.98 29.97 21.94 30.76 20.72 31.28C19.52 31.79 18.27 32.08 16.96 32.07C16.81 32.07 14.43 32.17 12.33 30.89C11.7 30.54 11.13 30.12 10.61 29.63C9.61995 28.71 8.83995 27.65 8.34995 26.39C7.93995 25.36 7.69995 24.28 7.68995 23.17C7.66995 21.04 8.24995 19.11 9.57995 17.4C10.55 16.15 11.76 15.2 13.21 14.58C14.67 13.96 16.21 13.68 17.82 13.85C19.32 14.01 20.72 14.48 21.98 15.3C23.19 16.08 24.2 17.08 24.93 18.39C25.56 19.37 25.92 20.5 26.07 21.68H26.06Z" fill="#D9DBFF"/>
<path id="Vector_3" d="M30.14 44H3.98999C3.98999 38.51 8.45999 34.04 13.95 34.04H20.17C25.66 34.04 30.13 38.51 30.13 44H30.14Z" fill="#D9DBFF"/>
<path id="Vector_4" d="M41.2701 4H31.2901C29.7701 4 28.55 5.23 28.55 6.74V13.52C28.55 15.04 29.7801 16.26 31.2901 16.26H31.88V18.21C31.88 18.5 32.0501 18.76 32.3101 18.89C32.4101 18.94 32.5201 18.96 32.6301 18.96C32.8101 18.96 32.98 18.9 33.12 18.78L36.01 16.27H41.2701C42.7901 16.27 44.01 15.04 44.01 13.53V6.75C44.01 5.23 42.7801 4.01 41.2701 4.01V4ZM39.2701 12.98H33.28C32.87 12.98 32.54 12.64 32.53 12.23C32.53 11.82 32.87 11.49 33.28 11.48H39.2701C39.68 11.48 40.0201 11.82 40.0201 12.23C40.0201 12.64 39.68 12.98 39.2701 12.98ZM39.2701 8.99H33.28C32.87 8.99 32.54 8.65 32.53 8.24C32.53 7.83 32.87 7.5 33.28 7.49H39.2701C39.68 7.49 40.0201 7.82 40.0201 8.24C40.0201 8.66 39.68 8.99 39.2701 8.99Z" fill="#D9DBFF"/>
<path id="Vector_5" d="M42.66 28.85C42.61 28.78 42.54 28.74 42.45 28.72L40.62 28.44C40.52 28.12 40.38 27.79 40.21 27.46C40.33 27.29 40.51 27.06 40.75 26.75C40.99 26.45 41.16 26.22 41.26 26.08C41.31 26.01 41.34 25.93 41.34 25.85C41.34 25.76 41.32 25.68 41.27 25.63C41.03 25.29 40.48 24.72 39.62 23.93C39.54 23.86 39.46 23.83 39.37 23.83C39.27 23.83 39.19 23.86 39.13 23.92L37.71 24.99C37.44 24.85 37.14 24.73 36.81 24.62L36.53 22.78C36.53 22.69 36.48 22.62 36.41 22.56C36.34 22.5 36.26 22.47 36.16 22.47H33.93C33.74 22.47 33.62 22.56 33.57 22.75C33.48 23.08 33.39 23.71 33.28 24.61C32.97 24.71 32.66 24.84 32.37 24.99L30.99 23.92C30.9 23.85 30.82 23.82 30.73 23.82C30.58 23.82 30.27 24.06 29.78 24.54C29.3 25.02 28.97 25.38 28.79 25.62C28.73 25.71 28.7 25.78 28.7 25.85C28.7 25.93 28.73 26.01 28.8 26.09C29.25 26.63 29.61 27.09 29.87 27.47C29.7 27.78 29.57 28.08 29.48 28.39L27.62 28.67C27.55 28.68 27.48 28.73 27.43 28.8C27.38 28.87 27.35 28.95 27.35 29.03V31.26C27.35 31.35 27.38 31.43 27.43 31.5C27.48 31.57 27.55 31.61 27.64 31.63L29.47 31.9C29.56 32.23 29.7 32.56 29.88 32.89C29.76 33.06 29.58 33.29 29.34 33.6C29.1 33.9 28.93 34.13 28.83 34.27C28.78 34.34 28.75 34.42 28.75 34.5C28.75 34.59 28.77 34.66 28.82 34.73C29.08 35.09 29.63 35.65 30.47 36.41C30.54 36.48 30.63 36.52 30.72 36.52C30.82 36.52 30.9 36.49 30.97 36.43L32.38 35.36C32.65 35.5 32.95 35.62 33.28 35.73L33.56 37.57C33.56 37.66 33.61 37.73 33.68 37.79C33.75 37.85 33.83 37.88 33.93 37.88H36.16C36.35 37.88 36.47 37.79 36.52 37.6C36.61 37.27 36.7 36.64 36.81 35.74C37.12 35.64 37.43 35.51 37.72 35.36L39.1 36.44C39.19 36.5 39.28 36.53 39.36 36.53C39.51 36.53 39.82 36.29 40.3 35.82C40.78 35.35 41.11 34.98 41.29 34.74C41.35 34.67 41.38 34.6 41.38 34.51C41.38 34.42 41.35 34.34 41.28 34.26C40.8 33.67 40.44 33.21 40.21 32.88C40.34 32.63 40.47 32.33 40.6 31.97L42.45 31.69C42.53 31.68 42.6 31.63 42.65 31.56C42.7 31.49 42.73 31.41 42.73 31.33V29.1C42.73 29.01 42.7 28.93 42.65 28.86L42.66 28.85ZM36.86 31.99C36.36 32.49 35.75 32.74 35.05 32.74C34.35 32.74 33.74 32.49 33.24 31.99C32.74 31.49 32.49 30.88 32.49 30.18C32.49 29.48 32.74 28.87 33.24 28.37C33.74 27.87 34.35 27.62 35.05 27.62C35.75 27.62 36.36 27.87 36.86 28.37C37.36 28.87 37.61 29.48 37.61 30.18C37.61 30.88 37.36 31.49 36.86 31.99Z" fill="#D9DBFF"/>
</g>
</g>
</svg>
