<svg width="48" height="48" viewBox="0 0 48 48" fill="none" xmlns="http://www.w3.org/2000/svg">
<g id="Userstudy_Nugget_Icons_2_distraction free interview 1">
<path id="Vector" d="M41.6701 20.5601H38.8901V27.6501H41.6701V20.5601Z" fill="#D9DBFF"/>
<path id="Vector_2" d="M44.7901 43.8098H24.3101C24.3101 39.5098 27.8101 36.0098 32.1101 36.0098H36.9801C41.2801 36.0098 44.7801 39.5098 44.7801 43.8098H44.7901Z" fill="#D9DBFF"/>
<path id="Vector_3" d="M34.5101 34.5198C38.4424 34.5198 41.6301 31.3321 41.6301 27.3998C41.6301 23.4675 38.4424 20.2798 34.5101 20.2798C30.5779 20.2798 27.3901 23.4675 27.3901 27.3998C27.3901 31.3321 30.5779 34.5198 34.5101 34.5198Z" fill="#D9DBFF"/>
<path id="Vector_4" d="M23.08 27.2502H3.20996C3.20996 23.0702 6.60996 19.6802 10.78 19.6802H15.51C19.69 19.6802 23.08 23.0802 23.08 27.2502Z" fill="#D9DBFF"/>
<path id="Vector_5" d="M12.9999 18.3499C16.9101 18.3499 20.0799 15.1801 20.0799 11.2699C20.0799 7.35977 16.9101 4.18994 12.9999 4.18994C9.08975 4.18994 5.91992 7.35977 5.91992 11.2699C5.91992 15.1801 9.08975 18.3499 12.9999 18.3499Z" fill="#D9DBFF"/>
<path id="Vector_6" d="M24.7199 35.0002C24.7199 34.9102 24.6999 34.8202 24.6599 34.7402C24.5599 34.5302 24.3499 34.3902 24.1099 34.3902H22.6899V33.1702C22.6899 31.9402 21.6999 30.9502 20.4699 30.9502H12.3899C11.1599 30.9502 10.1699 31.9402 10.1699 33.1702V38.6602C10.1699 39.8902 11.1599 40.8802 12.3899 40.8802H20.4699C21.6999 40.8802 22.6899 39.8902 22.6899 38.6602V37.5602L24.5699 35.3902C24.6599 35.2802 24.7199 35.1402 24.7199 34.9902V35.0002ZM12.3199 34.6302C12.3199 34.2802 12.5999 34.0002 12.9499 34.0002H19.9299C20.2799 34.0002 20.5599 34.2802 20.5599 34.6302C20.5599 34.9902 20.2799 35.2702 19.9299 35.2702H12.9499C12.5999 35.2702 12.3199 34.9902 12.3199 34.6402V34.6302ZM18.0899 37.3202C18.0899 37.6702 17.8099 37.9502 17.4599 37.9502H12.8699C12.5199 37.9502 12.2399 37.6702 12.2399 37.3202C12.2399 36.9602 12.5199 36.6802 12.8699 36.6802H17.4599C17.8099 36.6802 18.0899 36.9602 18.0899 37.3102V37.3202ZM19.8499 38.0402C19.4499 38.0402 19.1299 37.7202 19.1299 37.3202C19.1299 36.9202 19.4499 36.6002 19.8499 36.6002C20.2499 36.6002 20.5699 36.9202 20.5699 37.3202C20.5699 37.7202 20.2499 38.0402 19.8499 38.0402Z" fill="#D9DBFF"/>
<path id="Vector_7" d="M34.9402 7.1499H26.1702C24.8402 7.1499 23.7602 8.2299 23.7602 9.5599V11.9399H22.0902C21.8302 11.9399 21.6002 12.0899 21.4902 12.3199C21.4502 12.4099 21.4302 12.4999 21.4302 12.5999C21.4302 12.7599 21.4902 12.9099 21.5902 13.0299L23.7602 15.5299C23.7602 16.8699 24.8402 17.9499 26.1702 17.9499H34.9402C36.2702 17.9499 37.3502 16.8699 37.3502 15.5399V9.5699C37.3502 8.2399 36.2702 7.1599 34.9402 7.1599V7.1499ZM31.2202 15.3599C31.0702 15.5099 30.8902 15.5799 30.6702 15.5799C30.4502 15.5799 30.2702 15.5099 30.1302 15.3599C29.9802 15.2099 29.9102 15.0299 29.9102 14.8099C29.9102 14.5899 29.9802 14.4099 30.1302 14.2599C30.2702 14.1099 30.4602 14.0399 30.6702 14.0399C30.8802 14.0399 31.0802 14.1099 31.2202 14.2599C31.3602 14.4099 31.4402 14.5899 31.4402 14.8099C31.4402 15.0299 31.3702 15.2099 31.2202 15.3599ZM32.4202 11.7999C32.3402 11.9599 32.2402 12.0999 32.1202 12.2199C32.0002 12.3399 31.8502 12.4799 31.6702 12.6399C31.5002 12.7799 31.3602 12.9099 31.2702 13.0099C31.1802 13.1099 31.1202 13.2199 31.0902 13.3299C31.0702 13.4499 31.0202 13.5399 30.9402 13.5999C30.8602 13.6599 30.7602 13.6999 30.6502 13.6999C30.5102 13.6999 30.4102 13.6599 30.3302 13.5699C30.2502 13.4799 30.2202 13.3499 30.2202 13.1899C30.2202 12.9399 30.2702 12.7299 30.3602 12.5699C30.4502 12.3999 30.5902 12.2299 30.7602 12.0599C30.8802 11.9299 30.9702 11.8099 31.0302 11.7199C31.0902 11.6199 31.1202 11.5199 31.1202 11.3999C31.1202 11.2799 31.0802 11.1899 30.9902 11.1199C30.9002 11.0499 30.7902 11.0199 30.6402 11.0199C30.5202 11.0199 30.4002 11.0399 30.2802 11.0899C30.1602 11.1399 30.0302 11.1999 29.8802 11.2799L29.6902 11.3699C29.5102 11.4699 29.3702 11.5199 29.2502 11.5199C29.1202 11.5199 29.0102 11.4599 28.9102 11.3499C28.8202 11.2399 28.7702 11.0999 28.7702 10.9299C28.7702 10.8199 28.7902 10.7299 28.8302 10.6499C28.8702 10.5799 28.9302 10.4999 29.0202 10.4399C29.2602 10.2699 29.5302 10.1299 29.8302 10.0299C30.1302 9.9299 30.4402 9.8799 30.7402 9.8799C31.0802 9.8799 31.3902 9.9399 31.6602 10.0599C31.9302 10.1799 32.1402 10.3399 32.2902 10.5499C32.4402 10.7599 32.5202 10.9899 32.5202 11.2599C32.5202 11.4599 32.4802 11.6299 32.4002 11.7999H32.4202Z" fill="#D9DBFF"/>
</g>
</svg>
