<svg width="48" height="48" viewBox="0 0 48 48" fill="none" xmlns="http://www.w3.org/2000/svg">
<g id="Userstudy_Nugget_Icons_2_expert help 1">
<path id="Vector" d="M17.2402 32.3298C17.2402 32.3298 17.2002 32.2898 17.1802 32.2698L17.2402 32.3298ZM32.7502 35.5798C33.0202 35.3598 33.4002 34.9498 33.6402 34.7098C33.8202 34.5398 33.9902 34.3598 34.1602 34.1898C33.4902 33.2998 32.6602 32.5598 31.6702 32.0298C30.5702 31.4198 28.1402 30.4998 24.5902 30.4998C20.5602 30.4998 18.7102 31.4298 17.6002 32.0298C16.6302 32.5598 15.7802 33.2998 15.1102 34.1898C15.2802 34.3698 15.4502 34.5498 15.6302 34.7198C15.8702 34.9498 16.1202 35.2798 16.3802 35.4898C19.9702 34.6098 22.3402 34.2598 24.6202 34.2598C26.9002 34.2598 29.6202 34.6998 32.7302 35.5798H32.7502ZM38.7902 38.5398L38.0202 41.0898C37.9702 41.2698 37.8402 41.3998 37.6702 41.4598L34.8702 42.6798C35.7102 42.8598 36.5602 43.0798 37.4102 43.3598C38.3902 43.6698 39.4002 44.0498 40.3802 44.4898L39.4002 41.3298C39.3002 41.0198 39.4802 40.7098 39.7702 40.6198L42.2902 39.8298C41.9502 39.6798 41.5802 39.5398 41.2202 39.3898C40.4402 39.0898 39.6102 38.8098 38.7802 38.5398H38.7902ZM35.8702 41.0098C35.2402 40.8198 34.6002 40.6398 33.9402 40.4698L33.6702 41.9698L35.8702 41.0098ZM14.0402 40.4698C13.3902 40.6398 12.7402 40.8198 12.1102 41.0098L14.3102 41.9698L14.0302 40.4698H14.0402ZM10.3102 41.4698C10.1502 41.4098 10.0302 41.2898 9.9702 41.1198C9.9702 41.1198 9.9702 41.0998 9.9702 41.0898L9.2002 38.5398C8.3602 38.8098 7.5402 39.0898 6.7702 39.3898C6.4002 39.5298 6.0402 39.6798 5.7002 39.8298L8.2202 40.6198C8.5302 40.7198 8.6902 41.0398 8.5902 41.3298L7.6102 44.4898C8.5902 44.0498 9.6002 43.6698 10.5802 43.3598C11.4302 43.0898 12.2902 42.8598 13.1202 42.6798L10.3102 41.4598V41.4698ZM31.7902 33.6398C29.3102 33.1698 26.7002 32.9198 23.9902 32.9198C21.2802 32.9198 18.6702 33.1698 16.1902 33.6398C13.8202 34.0898 11.5702 34.7498 9.5102 35.5698L10.9002 40.1898C12.8002 39.5498 14.8302 39.0398 16.9502 38.6898C19.2202 38.3198 21.5802 38.1098 24.0002 38.1098C26.4202 38.1098 28.7902 38.3098 31.0502 38.6898C33.1702 39.0498 35.2002 39.5398 37.1002 40.1898L38.4902 35.5698C36.4202 34.7498 34.1802 34.0998 31.8102 33.6398H31.7902ZM25.1702 3.82976L26.0202 5.64976L28.0202 5.89976C28.3302 5.93976 28.5602 6.21976 28.5202 6.53976C28.5002 6.68976 28.4202 6.81976 28.3202 6.90976L26.8702 8.26976L27.2502 10.2598C27.3102 10.5698 27.1002 10.8698 26.8002 10.9298C26.6602 10.9598 26.5302 10.9298 26.4202 10.8698L24.6502 9.88976L22.8802 10.8698C22.6002 11.0198 22.2502 10.9198 22.1002 10.6398C22.0302 10.5198 22.0102 10.3898 22.0402 10.2598L22.4202 8.26976L20.9502 6.87976C20.7202 6.65976 20.7102 6.29976 20.9202 6.06976C21.0202 5.96976 21.1402 5.90976 21.2702 5.89976L23.2702 5.64976L24.1302 3.82976C24.2602 3.53976 24.6002 3.41976 24.8902 3.54976C25.0002 3.60976 25.1002 3.70976 25.1502 3.82976H25.1702ZM14.1002 32.9298C14.8602 31.9998 15.8002 31.2198 16.8502 30.6398C18.0102 29.9998 19.3202 29.5998 20.7202 29.5098C20.2702 29.2198 19.8602 28.8898 19.4902 28.5198C18.1702 27.1998 17.3402 25.3698 17.3402 23.3498C17.3402 21.3298 18.1602 19.5098 19.4902 18.1698C20.8102 16.8498 22.6402 16.0198 24.6602 16.0198C26.6802 16.0198 28.5002 16.8298 29.8402 18.1698C31.1802 19.5098 31.9902 21.3198 31.9902 23.3498C31.9902 25.3798 31.1802 27.1898 29.8402 28.5198C29.4602 28.8998 29.0502 29.2198 28.6002 29.5098C29.9902 29.6098 31.3002 30.0098 32.4702 30.6498C33.5302 31.2298 34.4602 32.0198 35.2202 32.9398C35.3802 32.7198 35.5402 32.4898 35.6902 32.2498C36.4802 30.9998 37.0602 29.5898 37.4002 28.0498C38.1602 24.5298 37.4202 21.0398 35.6202 18.2398C33.8102 15.4398 30.9402 13.3298 27.4302 12.5598C23.9102 11.7998 20.4202 12.5398 17.6202 14.3398C14.8202 16.1498 12.7102 19.0198 11.9402 22.5298C11.3902 25.0298 11.6102 27.4998 12.4302 29.7298C12.8102 30.8698 13.3902 31.9398 14.0902 32.9198L14.1002 32.9298ZM24.6502 17.6098C23.0702 17.6098 21.6402 18.2498 20.6102 19.2798C19.5802 20.3098 18.9402 21.7398 18.9402 23.3198C18.9402 24.8998 19.5802 26.3298 20.6102 27.3598C21.6402 28.3898 23.0702 29.0298 24.6502 29.0298C26.2302 29.0298 27.6602 28.3898 28.7002 27.3598C29.7402 26.3298 30.3702 24.8998 30.3702 23.3198C30.3702 21.7398 29.7302 20.3098 28.7002 19.2798C27.6702 18.2498 26.2302 17.6098 24.6502 17.6098ZM13.4802 6.44976L14.3302 8.26976L16.3302 8.51976C16.6402 8.55976 16.8702 8.83976 16.8302 9.15976C16.8102 9.30976 16.7302 9.43976 16.6302 9.52976L15.1802 10.8998L15.5502 12.8898C15.6102 13.1998 15.4102 13.4998 15.1002 13.5598C14.9602 13.5898 14.8302 13.5598 14.7202 13.4998L12.9502 12.5198L11.1802 13.4998C10.9002 13.6498 10.5502 13.5498 10.4002 13.2698C10.3302 13.1498 10.3102 13.0198 10.3402 12.8898L10.7202 10.8998L9.2502 9.50976C9.0202 9.28976 9.0102 8.92976 9.2202 8.69976C9.3202 8.59976 9.4402 8.53976 9.5702 8.52976L11.5702 8.27976L12.4302 6.45976C12.5602 6.16976 12.9002 6.04976 13.1902 6.17976C13.3002 6.23976 13.4002 6.33976 13.4602 6.44976H13.4802ZM36.9502 6.44976L37.8102 8.26976L39.8102 8.51976C40.1202 8.55976 40.3502 8.83976 40.3202 9.15976C40.3002 9.30976 40.2202 9.43976 40.1102 9.52976L38.6602 10.8998L39.0402 12.8898C39.1002 13.1998 38.8902 13.4998 38.5902 13.5598C38.4502 13.5898 38.3202 13.5598 38.2102 13.4998L36.4402 12.5198L34.6702 13.4998C34.3902 13.6498 34.0402 13.5498 33.8902 13.2698C33.8202 13.1498 33.8002 13.0198 33.8302 12.8898L34.2102 10.8998L32.7402 9.50976C32.5102 9.28976 32.5002 8.92976 32.7102 8.69976C32.8102 8.59976 32.9302 8.53976 33.0602 8.52976L35.0602 8.27976L35.9102 6.45976C36.0402 6.16976 36.3802 6.04976 36.6702 6.17976C36.7802 6.23976 36.8802 6.33976 36.9302 6.44976H36.9502Z" fill="#D9DBFF"/>
</g>
</svg>
