<svg xmlns="http://www.w3.org/2000/svg" version="1.1" xmlns:xlink="http://www.w3.org/1999/xlink" xmlns:svgjs="http://svgjs.com/svgjs" width="1000" height="1000"><rect width="1000" height="1000" rx="150" ry="150" fill="#ffffff"></rect><g transform="matrix(10,0,0,10,277.000166015625,150)"><svg xmlns="http://www.w3.org/2000/svg" version="1.1" xmlns:xlink="http://www.w3.org/1999/xlink" xmlns:svgjs="http://svgjs.com/svgjs" width="44.59" height="70"><svg id="LOGO_INFO" xmlns="http://www.w3.org/2000/svg" viewBox="0 0 44.59 70"><path d="m8.35,70c2.44-6.26,7.29-9.99,13.93-9.99s10.91,4.47,13.03,9.89l8.38-4.18c-2.74-9.23-11.3-15.99-21.41-15.99S3.64,56.46.89,65.67l7.47,4.33Z" fill="#4f37e2" stroke-width="0"></path><path d="m22.29,47.28C10,47.28,0,37.28,0,24.99S10,2.69,22.29,2.69s22.3,10,22.3,22.29-10,22.29-22.3,22.29Zm0-34.21c-6.57,0-11.91,5.34-11.91,11.91s5.34,11.91,11.91,11.91,11.91-5.34,11.91-11.91-5.34-11.91-11.91-11.91Z" fill="#4f37e2" stroke-width="0"></path><path d="m34.7,23.32l.06-23.32h0c5.51.07,9.92,5.11,9.84,11.27v.52s-.15,11.66-.15,11.66l-9.74-.12Z" fill="#4f37e2" stroke-width="0"></path></svg></svg></g></svg>