<?xml version="1.0" encoding="UTF-8"?>
<svg id="Layer_1" data-name="Layer 1" xmlns="http://www.w3.org/2000/svg" viewBox="0 0 294.84144 104.72081">
  <g id="get_curious_1" data-name="get curious 1">
    <path d="m10.46415,101.35087c3.05821-7.84496,9.13518-12.5183,17.45434-12.5183s13.65958,5.60409,16.31889,12.38533l10.50287-5.23928c-3.43068-11.56698-14.15663-20.02895-26.82176-20.02895-12.64585,0-23.35843,8.43623-26.80605,19.97616l9.3517,5.42504Z" fill="#4f37e2" stroke-width="0"/>
    <g>
      <path d="m91.21482,46.17676c-3.02783,0-5.72314-.72266-8.08545-2.16797-2.36328-1.44531-4.23242-3.42871-5.6084-5.95312-1.37695-2.52246-2.06445-5.34375-2.06445-8.46387,0-3.11914.6875-5.91797,2.06445-8.39551,1.37598-2.47754,3.24512-4.4502,5.6084-5.91895,2.3623-1.46777,5.05762-2.20215,8.08545-2.20215,2.43066,0,4.58691.47168,6.46875,1.41113,1.88086.94043,3.37207,2.23633,4.47266,3.8877,1.10156,1.65234,1.69727,3.60254,1.79004,5.84961v10.80469c-.09277,2.20215-.7002,4.14062-1.82422,5.81445-1.125,1.67578-2.62695,2.9834-4.50781,3.92285-1.88086.94043-4.01465,1.41113-6.39941,1.41113Zm.41309,15.68945c-3.57861,0-6.72119-.64258-9.42725-1.92676-2.70801-1.28418-4.86426-3.05176-6.46875-5.29883l5.84863-5.84961c1.23926,1.51465,2.64941,2.66016,4.23242,3.44141,1.58301.7793,3.4751,1.16992,5.67725,1.16992,2.75293,0,4.91992-.7002,6.50293-2.09863,1.58301-1.40039,2.37402-3.33789,2.37402-5.81543v-8.39551l1.58301-7.22559-1.44531-7.36328v-8.74023h9.29004v31.58691c0,3.30371-.78027,6.18164-2.33984,8.63672-1.55957,2.45312-3.70508,4.38086-6.43359,5.78027-2.73047,1.39941-5.86133,2.09863-9.39355,2.09863Zm1.37598-24.1543c1.60547,0,3.00488-.35449,4.19824-1.06641,1.19238-.71094,2.12109-1.66211,2.78711-2.85645.66406-1.19238.99707-2.59082.99707-4.19727,0-1.55957-.32129-2.94727-.96289-4.16406-.64355-1.21484-1.56055-2.16699-2.75293-2.85547-1.19336-.68848-2.61523-1.03223-4.2666-1.03223-1.56055,0-2.95898.34375-4.19727,1.03223-1.23877.68848-2.19092,1.65137-2.85596,2.89062-.66504,1.23828-.99805,2.61523-.99805,4.12891s.34473,2.90234,1.03223,4.16309c.68848,1.2627,1.62793,2.23633,2.82178,2.9248,1.19238.68848,2.59082,1.03223,4.19727,1.03223Z" fill="#101828" stroke-width="0"/>
      <path d="m133.60545,47.82812c-3.4873,0-6.60645-.74609-9.35938-2.23633s-4.91992-3.55469-6.50293-6.19336c-1.58301-2.6377-2.37402-5.60938-2.37402-8.91211,0-3.34863.76758-6.33105,2.30469-8.94629s3.64746-4.67969,6.33105-6.19336c2.68457-1.51367,5.67773-2.27148,8.98145-2.27148,3.20996,0,6.04395.71191,8.49805,2.13379,2.4541,1.42285,4.39258,3.38379,5.81543,5.88379,1.42188,2.50098,2.13379,5.35645,2.13379,8.56738,0,.59668-.04688,1.2168-.1377,1.8584-.09277.64258-.20703,1.35352-.34473,2.13281h-28.14551v-6.8125l23.94824-.06836-3.92285,2.88965c-.0459-1.97168-.37891-3.62305-.99805-4.9541-.61914-1.33008-1.50293-2.33984-2.64941-3.02832-1.14746-.68848-2.56934-1.03223-4.2666-1.03223-1.74414,0-3.26855.40234-4.57617,1.2041-1.30762.80371-2.30566,1.91602-2.99316,3.33789-.68848,1.42285-1.03223,3.12012-1.03223,5.0918,0,2.06543.36621,3.81934,1.10059,5.26465.7334,1.44531,1.7998,2.55859,3.2002,3.33789,1.39844.78027,3.03809,1.16992,4.91992,1.16992,1.69727,0,3.22266-.28613,4.57617-.86035,1.35352-.57324,2.53516-1.41016,3.54492-2.51172l5.36719,5.36816c-1.56055,1.92676-3.50977,3.37207-5.84961,4.33496-2.33984.96387-4.86328,1.44531-7.56934,1.44531Z" fill="#101828" stroke-width="0"/>
      <path d="m151.29099,21.88379v-8.12012h24.70605v8.12012h-24.70605Zm7.70801,25.1875V0h9.29004v47.07129h-9.29004Z" fill="#101828" stroke-width="0"/>
    </g>
    <g>
      <path d="m93.41713,104.72081c-3.34961,0-6.38965-.75684-9.11816-2.27148-2.73047-1.51367-4.88574-3.58887-6.46875-6.22754-1.58301-2.6377-2.37402-5.6084-2.37402-8.91211,0-3.25684.79102-6.2041,2.37402-8.84277,1.58301-2.6377,3.73828-4.71387,6.46875-6.22754,2.72852-1.51367,5.79102-2.27148,9.18652-2.27148,2.61523,0,5.02441.47168,7.22656,1.41113,2.20215.94043,4.10449,2.30566,5.71094,4.09473l-5.98633,6.05566c-.87207-1.00879-1.89258-1.74316-3.0625-2.20215-1.16992-.45801-2.4668-.68848-3.88867-.68848-1.65137,0-3.12012.35645-4.4043,1.06738-1.28418.71191-2.28223,1.71973-2.99316,3.02734-.71191,1.30762-1.06641,2.83398-1.06641,4.57617,0,1.69824.35449,3.2002,1.06641,4.50781.71094,1.30762,1.70898,2.33984,2.99316,3.09668s2.75293,1.13574,4.4043,1.13574c1.46777,0,2.79785-.25195,3.99219-.75684,1.19238-.50488,2.22461-1.26172,3.09668-2.27148l5.98633,6.05664c-1.69727,1.83496-3.64648,3.23438-5.84863,4.19727-2.20215.96387-4.63477,1.44531-7.29492,1.44531Z" fill="#101828" stroke-width="0"/>
      <path d="m125.76088,104.72081c-2.93652,0-5.55176-.63086-7.8457-1.89258s-4.07129-3.00391-5.33301-5.23047c-1.2627-2.22461-1.89258-4.75879-1.89258-7.60352v-19.33789h9.29004v19.13086c0,1.33105.22949,2.47754.68848,3.44141.45801.96289,1.12402,1.68555,1.99609,2.16699.87012.48242,1.92676.72266,3.16504.72266,1.83496,0,3.25684-.5498,4.2666-1.65137,1.00879-1.10059,1.51367-2.66016,1.51367-4.67969v-19.13086h9.35938v19.33789c0,2.88965-.64258,5.44824-1.92676,7.67285-1.28516,2.22559-3.0625,3.95703-5.33301,5.19531-2.27148,1.23926-4.9209,1.8584-7.94824,1.8584Z" fill="#101828" stroke-width="0"/>
      <path d="m147.98793,103.96397v-33.30762h9.3584v33.30762h-9.3584Zm9.3584-18.37402l-3.71582-2.54688c.50391-4.03613,1.75488-7.22559,3.75098-9.56543,1.99512-2.33984,4.82715-3.50977,8.49805-3.50977,1.65234,0,3.1084.26465,4.37012.79199s2.39648,1.36523,3.40625,2.51172l-5.78027,6.8125c-.45898-.5498-1.04395-.96289-1.75488-1.23828-.71191-.27539-1.54785-.41309-2.51172-.41309-1.83594,0-3.33789.58496-4.50781,1.75488s-1.75488,2.9707-1.75488,5.40234Z" fill="#101828" stroke-width="0"/>
      <path d="m181.43226,65.49522c-1.46973,0-2.69629-.51611-3.68262-1.54834s-1.47949-2.28174-1.47949-3.75049c0-1.46777.49316-2.71826,1.47949-3.75049s2.21289-1.54834,3.68262-1.54834c1.55859,0,2.82129.51611,3.78418,1.54834.96387,1.03223,1.44531,2.28271,1.44531,3.75049,0,1.46875-.48145,2.71826-1.44531,3.75049-.96289,1.03223-2.22559,1.54834-3.78418,1.54834Zm-4.67969,38.46875v-33.30762h9.3584v33.30762h-9.3584Z" fill="#101828" stroke-width="0"/>
      <path d="m209.64711,104.72081c-3.34863,0-6.37695-.76758-9.08301-2.30566-2.70801-1.53613-4.85156-3.63477-6.43457-6.29688-1.58301-2.66016-2.37402-5.59668-2.37402-8.80859,0-3.30273.79102-6.25,2.37402-8.84277,1.58301-2.59082,3.72656-4.65527,6.43457-6.19336,2.70605-1.53613,5.73438-2.30566,9.08301-2.30566,3.39551,0,6.43457.75781,9.11914,2.27148,2.68359,1.51367,4.81641,3.57812,6.39941,6.19336s2.37402,5.57422,2.37402,8.87695c0,3.21191-.78027,6.14844-2.33984,8.80859-1.55957,2.66211-3.69336,4.76074-6.39941,6.29688-2.70801,1.53809-5.75781,2.30566-9.15332,2.30566Zm0-8.6709c1.65234,0,3.12012-.37891,4.4043-1.13574s2.27148-1.78906,2.95996-3.09668c.6875-1.30762,1.03223-2.83203,1.03223-4.57617,0-1.69727-.36816-3.2002-1.10156-4.50781-.73438-1.30762-1.7207-2.31543-2.95898-3.02734-1.23828-.71094-2.68359-1.06738-4.33594-1.06738-1.65137,0-3.1084.36816-4.36914,1.10156-1.2627.73438-2.23633,1.74414-2.9248,3.02832s-1.03223,2.79883-1.03223,4.54102c0,1.65234.34375,3.14355,1.03223,4.47363.68848,1.33105,1.66211,2.37402,2.9248,3.13086,1.26074.75684,2.71777,1.13574,4.36914,1.13574Z" fill="#101828" stroke-width="0"/>
      <path d="m247.42738,104.72081c-2.93652,0-5.55176-.63086-7.8457-1.89258s-4.07129-3.00391-5.33301-5.23047c-1.2627-2.22461-1.89258-4.75879-1.89258-7.60352v-19.33789h9.29004v19.13086c0,1.33105.22949,2.47754.68848,3.44141.45801.96289,1.12402,1.68555,1.99609,2.16699.87012.48242,1.92676.72266,3.16504.72266,1.83496,0,3.25684-.5498,4.2666-1.65137,1.00879-1.10059,1.51367-2.66016,1.51367-4.67969v-19.13086h9.35938v19.33789c0,2.88965-.64258,5.44824-1.92676,7.67285-1.28516,2.22559-3.0625,3.95703-5.33301,5.19531-2.27148,1.23926-4.9209,1.8584-7.94824,1.8584Z" fill="#101828" stroke-width="0"/>
      <path d="m281.21547,104.72081c-1.88184,0-3.72754-.24121-5.53906-.72266-1.81348-.48145-3.49902-1.18066-5.05859-2.09863s-2.88965-2.01855-3.99121-3.30371l5.50586-5.57422c1.14551,1.28516,2.46484,2.26074,3.95605,2.9248,1.49121.66602,3.1543.99805,4.98926.99805,1.42188,0,2.5-.2168,3.23438-.65332.7334-.43555,1.10156-1.04395,1.10156-1.82422,0-.87109-.40234-1.55859-1.2041-2.06445-.80371-.50391-1.83594-.92871-3.09668-1.27344-1.2627-.34375-2.59277-.7334-3.99121-1.16992-1.40039-.43457-2.74219-.99707-4.02637-1.68555-1.28516-.68848-2.3291-1.67383-3.13086-2.95898-.80371-1.28418-1.2041-2.95898-1.2041-5.02344s.52637-3.88867,1.58203-5.47168c1.05566-1.58203,2.55762-2.80957,4.50781-3.68164,1.94922-.87012,4.23242-1.30762,6.84766-1.30762,2.79785,0,5.33301.48242,7.60352,1.44531,2.27148.96387,4.11719,2.40918,5.54004,4.33594l-5.50488,5.57422c-1.00977-1.19238-2.15723-2.0752-3.44141-2.64941-1.28516-.57324-2.63867-.86035-4.05957-.86035-1.33203,0-2.3291.19531-2.99414.58496-.66504.39062-.99805.97559-.99805,1.75488,0,.73438.40137,1.3418,1.20508,1.82324.80176.48145,1.83398.88379,3.09668,1.2041,1.26074.32227,2.59082.7002,3.99121,1.13574,1.39844.43652,2.74023,1.04395,4.02539,1.82422,1.28418.78027,2.31641,1.8125,3.09668,3.09668s1.16992,2.95898,1.16992,5.02344c0,3.25781-1.19336,5.83887-3.57812,7.74121-2.38574,1.9043-5.59766,2.85645-9.63477,2.85645Z" fill="#101828" stroke-width="0"/>
    </g>
    <path d="m27.92595,72.89495c-15.39861,0-27.92595-12.52814-27.92595-27.92595,0-15.39861,12.52734-27.92595,27.92595-27.92595s27.92674,12.52734,27.92674,27.92595c0,15.39781-12.52814,27.92595-27.92674,27.92595Zm0-42.84588c-8.2272,0-14.91993,6.69273-14.91993,14.91993,0,8.2264,6.69273,14.91993,14.91993,14.91993s14.92072-6.69353,14.92072-14.91993c0-8.2272-6.69353-14.91993-14.92072-14.91993Z" fill="#4f37e2" stroke-width="0"/>
    <path d="m43.45982,42.88461l.06916-29.21476h.00001c6.90275.0871,12.41969,6.40636,12.32243,14.11446l-.00819.64874-.1843,14.60549-12.19912-.15393Z" fill="#4f37e2" stroke-width="0"/>
  </g>
</svg>