<svg width="48" height="48" viewBox="0 0 48 48" fill="none" xmlns="http://www.w3.org/2000/svg">
<g id="Icon_user_pains_needs">
<path id="Vector" d="M40.43 15H36.97V23.84H40.43V15Z" fill="#D9DBFF"/>
<path id="Vector_2" d="M40.3499 22.19C40.6899 24.86 39.9899 27.25 38.1999 29.3C37.3499 30.27 36.3399 31.04 35.1399 31.56C33.9699 32.06 32.7499 32.34 31.4699 32.33C31.3199 32.33 28.9999 32.43 26.9499 31.17C26.3399 30.83 25.7799 30.41 25.2699 29.94C24.3099 29.04 23.5399 28.01 23.0599 26.78C22.6599 25.77 22.4299 24.72 22.4199 23.63C22.3999 21.55 22.9699 19.67 24.2599 18C25.1999 16.78 26.3799 15.86 27.7999 15.25C29.2299 14.64 30.7299 14.37 32.2999 14.54C33.7699 14.7 35.1299 15.16 36.3599 15.95C37.5399 16.72 38.5299 17.69 39.2399 18.97C39.8499 19.92 40.2099 21.03 40.3499 22.18V22.19Z" fill="#D9DBFF"/>
<path id="Vector_3" d="M44.3301 44H18.8101C18.8101 38.64 23.1701 34.28 28.5301 34.28H34.6001C39.9601 34.28 44.3201 38.64 44.3201 44H44.3301Z" fill="#D9DBFF"/>
<path id="Vector_4" d="M14.9801 2.17004C9.92006 2.17004 5.81006 6.28004 5.81006 11.34C5.81006 16.4 9.92006 20.51 14.9801 20.51C20.0401 20.51 24.1501 16.4 24.1501 11.34C24.1501 6.28004 20.0501 2.17004 14.9801 2.17004ZM19.1601 12.57C18.7601 13.14 18.2001 13.74 17.5101 14.34C16.3401 15.35 15.1901 16.02 15.1401 16.05C15.0901 16.08 15.0401 16.09 14.9901 16.09C14.9401 16.09 14.8901 16.08 14.8501 16.05C14.8001 16.02 13.6401 15.35 12.4701 14.34C11.7701 13.74 11.2201 13.14 10.8201 12.57C10.3001 11.83 10.0401 11.11 10.0501 10.45C10.0501 9.68004 10.3301 8.95004 10.8301 8.40004C11.3401 7.84004 12.0101 7.54004 12.7401 7.54004C13.6701 7.54004 14.5101 8.06004 15.0001 8.88004C15.4901 8.06004 16.3301 7.54004 17.2601 7.54004C17.9401 7.54004 18.5901 7.82004 19.0901 8.32004C19.6401 8.87004 19.9501 9.65004 19.9501 10.46C19.9501 11.12 19.6801 11.84 19.1601 12.58V12.57Z" fill="#D9DBFF"/>
<path id="Vector_5" d="M11.72 21.6801C6.36001 21.6801 2.01001 26.0301 2.01001 31.3901C2.01001 36.7501 6.36001 41.1001 11.72 41.1001C17.08 41.1001 21.43 36.7501 21.43 31.3901C21.43 26.0301 17.08 21.6801 11.72 21.6801ZM11.21 38.0601C11.14 38.1901 11.04 38.2501 10.89 38.2501C10.87 38.2501 10.83 38.2501 10.78 38.2301C10.69 38.2001 10.63 38.1601 10.59 38.0901C10.55 38.0201 10.54 37.9401 10.56 37.8601L12.06 31.7201L8.97001 32.4901C8.97001 32.4901 8.92001 32.4901 8.88001 32.4901C8.79001 32.4901 8.71001 32.4601 8.64001 32.4101C8.55001 32.3301 8.52001 32.2401 8.54001 32.1101L10.07 25.8401C10.09 25.7701 10.13 25.7101 10.19 25.6701C10.25 25.6201 10.32 25.6001 10.4 25.6001H12.89C12.99 25.6001 13.07 25.6301 13.13 25.7001C13.2 25.7601 13.23 25.8401 13.23 25.9201C13.23 25.9601 13.22 26.0101 13.19 26.0601L11.89 29.5801L14.9 28.8301C14.9 28.8301 14.97 28.8101 14.99 28.8101C15.09 28.8101 15.17 28.8501 15.25 28.9201C15.34 29.0201 15.36 29.1301 15.3 29.2501L11.19 38.0501L11.21 38.0601ZM12.46 38.3201C12.38 38.3201 12.29 38.3001 12.22 38.2501C12.02 38.1201 11.97 37.8501 12.1 37.6501L13.62 35.3601C13.71 35.2201 13.87 35.1501 14.03 35.1701C14.19 35.1901 14.33 35.3001 14.38 35.4601L14.75 36.5101L16.18 35.3701C16.37 35.2201 16.64 35.2501 16.79 35.4401C16.94 35.6301 16.91 35.9001 16.72 36.0501L14.82 37.5701C14.71 37.6601 14.57 37.6901 14.43 37.6501C14.3 37.6101 14.19 37.5101 14.14 37.3801L13.86 36.5801L12.82 38.1501C12.74 38.2801 12.6 38.3401 12.46 38.3401V38.3201ZM9.10001 37.4801L8.13001 36.0201L7.87001 36.7701C7.83001 36.8901 7.73001 36.9901 7.60001 37.0201C7.48001 37.0601 7.34001 37.0201 7.24001 36.9501L5.47001 35.5301C5.30001 35.3901 5.27001 35.1401 5.41001 34.9601C5.55001 34.7901 5.80001 34.7601 5.98001 34.9001L7.31001 35.9601L7.65001 34.9901C7.70001 34.8501 7.83001 34.7401 7.98001 34.7301C8.13001 34.7101 8.28001 34.7801 8.36001 34.9101L9.78001 37.0301C9.90001 37.2101 9.85001 37.4601 9.67001 37.5901C9.60001 37.6401 9.52001 37.6601 9.45001 37.6601C9.32001 37.6601 9.19001 37.6001 9.12001 37.4801H9.10001Z" fill="#D9DBFF"/>
</g>
</svg>
