<svg width="36" height="36" viewBox="0 0 36 36" fill="none" xmlns="http://www.w3.org/2000/svg">
<g id="Icon_PM">
<g id="Icon">
<path id="Vector" fill-rule="evenodd" clip-rule="evenodd" d="M27.4635 19.1955L28.0155 20.5245C28.23 20.6325 28.4385 20.7525 28.638 20.8845L30.066 20.697C30.4395 20.649 30.8115 20.79 31.059 21.0735C31.7295 21.8415 32.2455 22.734 32.5755 23.6985C32.697 24.0555 32.6325 24.4485 32.4045 24.747C32.4045 24.747 31.5285 25.8915 31.5285 25.89C31.542 26.13 31.542 26.3715 31.5285 26.6085L32.4045 27.753C32.6325 28.0515 32.697 28.4445 32.5755 28.8015C32.2455 29.766 31.7295 30.6585 31.059 31.4265C30.8115 31.71 30.4395 31.851 30.066 31.803L28.638 31.6155C28.437 31.7475 28.2285 31.8675 28.0155 31.9755L27.4635 33.3045C27.3195 33.6525 27.0105 33.9045 26.6415 33.978C25.6395 34.1745 24.6105 34.1745 23.6085 33.978C23.2395 33.9045 22.9305 33.6525 22.7865 33.3045L22.2345 31.9755C22.02 31.8675 21.8115 31.7475 21.612 31.6155L20.184 31.803C19.8105 31.851 19.4385 31.71 19.191 31.4265C18.5205 30.6585 18.0045 29.766 17.6745 28.8015C17.553 28.4445 17.6175 28.0515 17.8455 27.753C17.8455 27.753 18.7215 26.6085 18.7215 26.61C18.708 26.37 18.708 26.1285 18.7215 25.8915L17.8455 24.747C17.6175 24.4485 17.553 24.0555 17.6745 23.6985C18.0045 22.734 18.5205 21.8415 19.191 21.0735C19.4385 20.79 19.8105 20.649 20.184 20.697L21.612 20.8845C21.813 20.7525 22.0215 20.6325 22.2345 20.5245L22.7865 19.1955C22.9305 18.8475 23.2395 18.5955 23.6085 18.522C24.6105 18.3255 25.6395 18.3255 26.6415 18.522C27.0105 18.5955 27.3195 18.8475 27.4635 19.1955ZM25.125 24.375C24.09 24.375 23.25 25.215 23.25 26.25C23.25 27.285 24.09 28.125 25.125 28.125C26.16 28.125 27 27.285 27 26.25C27 25.215 26.16 24.375 25.125 24.375Z" fill="#4F37E2"/>
<path id="Vector_2" fill-rule="evenodd" clip-rule="evenodd" d="M21.5175 34.125H7.4895C6.3945 34.125 5.346 33.69 4.572 32.9175C3.798 32.1435 3.3645 31.0935 3.3645 30V6C3.3645 4.9065 3.798 3.8565 4.572 3.0825C5.346 2.31 6.3945 1.875 7.4895 1.875H20.367C21.0645 1.875 21.732 2.151 22.224 2.6445L28.845 9.2655C29.337 9.7575 29.6145 10.425 29.6145 11.121V19.2435L29.1345 19.3065C28.9935 18.966 28.8495 18.6195 28.8495 18.6195C28.512 17.808 27.792 17.22 26.9295 17.0505C25.7385 16.8165 24.5115 16.8165 23.3205 17.0505C22.458 17.22 21.738 17.808 21.4005 18.6195L21.1155 19.3065C20.751 19.2585 20.379 19.2105 20.379 19.2105C19.5075 19.0965 18.6375 19.425 18.06 20.0865C17.262 21.003 16.6485 22.0635 16.2555 23.214C15.9705 24.0435 16.1205 24.963 16.6545 25.659L17.1075 26.25C16.884 26.5425 16.6545 26.841 16.6545 26.841C16.1205 27.537 15.9705 28.4565 16.2555 29.286C16.6485 30.4365 17.262 31.497 18.06 32.4135C18.6375 33.075 19.5075 33.4035 20.379 33.2895L21.1155 33.1935C21.2565 33.534 21.4005 33.8805 21.4005 33.8805C21.4365 33.9645 21.4755 34.0455 21.5175 34.125ZM20.2395 3.885V9.75C20.2395 10.578 20.91 11.25 21.7395 11.25H27.6045C27.531 11.088 27.4275 10.9395 27.3 10.8105L20.679 4.1895C20.55 4.0605 20.4015 3.9585 20.2395 3.885ZM8.9895 11.5965H15.7395C16.3605 11.5965 16.8645 11.0925 16.8645 10.4715C16.8645 9.8505 16.3605 9.3465 15.7395 9.3465H8.9895C8.3685 9.3465 7.8645 9.8505 7.8645 10.4715C7.8645 11.0925 8.3685 11.5965 8.9895 11.5965ZM8.9895 27.375H14.2395C14.8605 27.375 15.3645 26.871 15.3645 26.25C15.3645 25.629 14.8605 25.125 14.2395 25.125H8.9895C8.3685 25.125 7.8645 25.629 7.8645 26.25C7.8645 26.871 8.3685 27.375 8.9895 27.375ZM8.9895 22.125H14.2395C14.8605 22.125 15.3645 21.621 15.3645 21C15.3645 20.379 14.8605 19.875 14.2395 19.875H8.9895C8.3685 19.875 7.8645 20.379 7.8645 21C7.8645 21.621 8.3685 22.125 8.9895 22.125ZM8.9895 16.875H19.4895C20.1105 16.875 20.6145 16.371 20.6145 15.75C20.6145 15.129 20.1105 14.625 19.4895 14.625H8.9895C8.3685 14.625 7.8645 15.129 7.8645 15.75C7.8645 16.371 8.3685 16.875 8.9895 16.875Z" fill="#4F37E2"/>
</g>
</g>
</svg>
