<svg width="36" height="36" viewBox="0 0 36 36" fill="none" xmlns="http://www.w3.org/2000/svg">
<path d="M24.0075 4.17749H20.64V12.765H24.0075V4.17749Z" fill="#4F37E2"/>
<path d="M23.925 11.16C24.255 13.755 23.58 16.08 21.8325 18.0675C21.0075 19.0125 20.025 19.7625 18.8625 20.2575C17.73 20.745 16.5375 21.015 15.3 21C15.1575 21 12.9 21.09 10.905 19.875C10.3125 19.545 9.7725 19.14 9.2775 18.675C8.34 17.805 7.5975 16.7925 7.1325 15.6075C6.75 14.625 6.5175 13.6125 6.51 12.5475C6.495 10.53 7.0425 8.6925 8.295 7.08C9.21 5.895 10.3575 4.995 11.7375 4.41C13.125 3.8175 14.5875 3.555 16.1025 3.72C17.5275 3.8775 18.855 4.32 20.0475 5.0925C21.195 5.835 22.155 6.78 22.845 8.025C23.445 8.9475 23.7825 10.02 23.925 11.145V11.16Z" fill="#4F37E2"/>
<path d="M27.7875 32.3175H3C3 27.1125 7.2375 22.875 12.4425 22.875H18.3375C18.4725 22.875 18.5925 22.875 18.7275 22.89C18.8325 26.8875 22.1025 30.09 26.1225 30.09C26.5875 30.09 27.045 30.045 27.4875 29.9625C27.675 30.72 27.7875 31.515 27.7875 32.325V32.3175Z" fill="#4F37E2"/>
<path d="M32.6925 28.08L30.4725 25.86C31.83 23.8125 31.605 21.015 29.805 19.215C27.7425 17.1525 24.3975 17.1525 22.3425 19.215C20.775 20.7825 20.4075 23.0775 21.21 24.9975C21.465 25.6125 21.8475 26.1825 22.3425 26.6775C23.085 27.4275 24.0075 27.9075 24.975 28.1025C26.3325 28.395 27.795 28.14 28.995 27.345L31.215 29.565C31.62 29.9775 32.2875 29.9775 32.6925 29.565C33.105 29.16 33.105 28.485 32.6925 28.08ZM28.32 25.1925C27.075 26.4375 25.065 26.4375 23.82 25.1925C22.575 23.9475 22.575 21.9375 23.82 20.6925C25.065 19.4475 27.075 19.4475 28.32 20.6925C29.565 21.9375 29.5575 23.9475 28.32 25.185V25.1925Z" fill="#4F37E2"/>
</svg>
