<svg width="116" height="32" viewBox="0 0 116 32" fill="none" xmlns="http://www.w3.org/2000/svg">
<g id="inc42-logo 1" clip-path="url(#clip0_564_3378)">
<g id="VD-Explorations">
<g id="Inc42-VD---Desktop-Hover-&#38;-Sponsored-States">
<g id="Group-64">
<g id="Page-1">
<path id="Fill-1" fill-rule="evenodd" clip-rule="evenodd" d="M64.9885 9.36393C61.7795 8.74386 58.5207 8.42105 56.2292 8.42105C48.1265 8.42105 45.2094 11.7903 45.2094 17.6842V23.0175C45.2094 28.359 47.2031 32 56.7943 32C59.3382 32 62.4729 31.7698 65.5536 31.1579V26.386C63.1428 26.8379 60.901 26.9474 57.3594 26.9474C53.5579 26.9474 51.4257 25.1032 51.4257 21.8947V18.807C51.4257 15.4131 53.1145 13.4737 56.5117 13.4737C57.0757 13.4737 58.1817 13.481 58.7722 13.6295V17.1228H64.9885V9.36393ZM38.9931 17.1228C38.9931 10.7761 36.0873 8.42105 30.7989 8.42105C28.7973 8.42105 26.8575 8.97544 24.5826 10.1053L24.0175 8.98246H15.8233V14.0351H19.214V26.9474H16.3884V32H28.2559V26.9474H25.4303V14.0469C26.7041 13.5947 27.9778 13.4737 29.4333 13.4737C33.0808 13.4737 32.7768 16.6366 32.7768 18.8188V32H42.3838V26.9474H38.9931V17.1228ZM9.607 26.9474H12.9977V32H0V26.9474H3.3907V5.05263H0.565117V0H12.4326V5.05263H9.607V26.9474Z" fill="#1A1A1A"/>
<path id="Fill-4" fill-rule="evenodd" clip-rule="evenodd" d="M109.633 10.6667C109.633 8.33151 108.792 5.05263 104.829 5.05263C100.662 5.05263 98.7345 9.07397 100.02 13.4737H94.4582C94.0369 12.2122 93.7852 8.70119 95.1324 5.90961C96.6187 2.82975 100.126 0 104.759 0H93.2444H83.6374L71.7699 17.6842V25.2632H84.485V20.2105H77.7036L87.5932 5.05263H87.8757V32H93.2444C93.2444 22.0399 99.0823 18.8129 104.547 16.5353C107.553 15.282 109.633 13.737 109.633 10.6667ZM115.284 10.386V26.9474H101.156C101.156 24.1404 103.799 23.6623 107.09 21.8947C111.315 19.625 115.284 16.8421 115.284 10.386Z" fill="#1A1A1A"/>
</g>
</g>
</g>
</g>
</g>
<defs>
<clipPath id="clip0_564_3378">
<rect width="116" height="32" fill="white"/>
</clipPath>
</defs>
</svg>
