<svg width="48" height="48" viewBox="0 0 48 48" fill="none" xmlns="http://www.w3.org/2000/svg">
<g id="Userstudy_Nugget_Icons_2_all insights one place 1">
<path id="Vector" d="M27.3302 39.5302C25.3902 40.7502 22.5902 40.7402 20.6602 39.5302L7.47016 31.2502L4.56016 29.4302C4.14016 30.1302 3.91016 30.9202 3.91016 31.7402C3.91016 33.3202 4.75016 34.7902 6.17016 35.6802L21.0602 45.0302C22.7902 46.1102 25.1602 46.1302 26.9202 45.0302L41.8102 35.6802C43.2202 34.7902 44.0702 33.3202 44.0702 31.7402C44.0702 30.9202 43.8402 30.1302 43.4202 29.4302L40.5102 31.2502C40.5102 31.2502 27.3302 39.5202 27.3202 39.5302H27.3302Z" fill="#D9DBFF"/>
<path id="Vector_2" d="M10.5297 30.65L22.4897 38.16C23.3797 38.72 24.6197 38.72 25.5097 38.16L37.4697 30.65L40.6997 28.63L42.1497 27.72C43.3697 26.82 44.0897 25.46 44.0897 24.01C44.0897 23.12 43.8097 22.26 43.3197 21.52L40.4197 23.34L32.3697 28.39L27.3397 31.55C26.3397 32.17 25.1797 32.49 24.0097 32.49C22.8397 32.49 21.6697 32.18 20.6797 31.55L15.6497 28.39L7.59969 23.34L4.69969 21.52C4.20969 22.26 3.92969 23.11 3.92969 24.01C3.92969 25.46 4.64969 26.82 5.85969 27.72L7.30969 28.63L10.5297 30.65Z" fill="#D9DBFF"/>
<path id="Vector_3" d="M41.8199 12.3298L26.9299 2.97979C25.1799 1.87979 22.8199 1.87979 21.0699 2.97979L6.17992 12.3298C4.76992 13.2198 3.91992 14.6898 3.91992 16.2698C3.91992 17.3598 4.32992 18.3898 5.03992 19.2198L7.49992 20.7598L10.7199 22.7798L22.0799 29.9098L22.4799 30.1598C23.3699 30.7198 24.6099 30.7198 25.4999 30.1598L25.8999 29.9098L37.2599 22.7798L40.4799 20.7598L42.9399 19.2198C43.6499 18.3898 44.0599 17.3598 44.0599 16.2598C44.0599 14.6798 43.2199 13.2098 41.7999 12.3198L41.8199 12.3298ZM13.2599 11.0198C13.4099 10.5098 13.9499 10.2198 14.4599 10.3698L16.3099 10.9298C16.8199 11.0798 17.1099 11.6198 16.9599 12.1298C16.8099 12.6398 16.2699 12.9298 15.7599 12.7798L13.9099 12.2198C13.3999 12.0698 13.1099 11.5298 13.2599 11.0198ZM17.0199 16.7798L15.5399 17.8798C15.1299 18.1898 14.5499 18.0998 14.2499 17.6898C13.9399 17.2798 14.0299 16.6998 14.4399 16.3998L15.9199 15.2998C16.3299 14.9898 16.9099 15.0798 17.2099 15.4898C17.5099 15.8998 17.4299 16.4798 17.0199 16.7798ZM26.8499 23.9898C26.5299 25.0598 25.3399 25.8598 23.9399 25.8598C22.5399 25.8598 21.3499 25.0698 21.0299 23.9898C20.9399 23.6998 21.1699 23.3998 21.4699 23.3998H26.4099C26.7199 23.3998 26.9399 23.6998 26.8499 23.9898ZM26.4399 22.4098H21.4299C21.0499 22.4098 20.7399 22.0998 20.7399 21.7198C20.7399 21.3398 21.0499 21.0298 21.4299 21.0298H26.4499C26.8299 21.0298 27.1299 21.3398 27.1299 21.7198C27.1299 22.0998 26.8199 22.4098 26.4399 22.4098ZM28.2299 16.6598C27.2899 17.9498 27.3999 19.0198 27.3999 19.0198C27.3999 19.5898 26.9399 20.0498 26.3699 20.0498H21.4999C20.9299 20.0498 20.4699 19.5898 20.4699 19.0198C20.4699 19.0198 20.5799 17.9498 19.6399 16.6598C18.7699 15.4698 17.9999 14.1498 17.9999 12.5598C17.9999 9.27979 20.6599 6.61978 23.9399 6.61978C27.2199 6.61978 29.8799 9.27979 29.8799 12.5598C29.8799 14.1498 29.0999 15.4698 28.2399 16.6598H28.2299ZM33.8899 16.5198C33.6099 16.9698 33.0099 17.1098 32.5599 16.8298L30.9199 15.8098C30.4699 15.5298 30.3299 14.9298 30.6099 14.4798C30.8899 14.0298 31.4899 13.8898 31.9399 14.1698L33.5799 15.1898C34.0299 15.4698 34.1699 16.0698 33.8899 16.5198ZM33.8199 10.8398L32.0999 11.5198C31.6299 11.7098 31.0899 11.4798 30.8999 10.9998C30.7099 10.5198 30.9399 9.98979 31.4199 9.79979L33.1399 9.11978C33.6099 8.92978 34.1499 9.15979 34.3399 9.63979C34.5299 10.1198 34.2999 10.6498 33.8199 10.8398Z" fill="#D9DBFF"/>
</g>
</svg>
