<svg xmlns="http://www.w3.org/2000/svg" version="1.1" xmlns:xlink="http://www.w3.org/1999/xlink" xmlns:svgjs="http://svgjs.dev/svgjs" width="2000" height="1247" viewBox="0 0 2000 1247"><g transform="matrix(1,0,0,1,-1.2121212121212466,0.504858299595071)"><svg viewBox="0 0 396 247" data-background-color="#ffffff" preserveAspectRatio="xMidYMid meet" height="1247" width="2000" xmlns="http://www.w3.org/2000/svg" xmlns:xlink="http://www.w3.org/1999/xlink"><g id="tight-bounds" transform="matrix(1,0,0,1,0.2400000000000091,-0.09999999999999432)"><svg viewBox="0 0 395.52 247.2" height="247.2" width="395.52"><g><svg></svg></g><g><svg viewBox="0 0 395.52 247.2" height="247.2" width="395.52"><g transform="matrix(1,0,0,1,75.54432,101.37335448345542)"><svg viewBox="0 0 244.43135999999998 44.45329103308916" height="44.45329103308916" width="244.43135999999998"><g><svg viewBox="0 0 244.43135999999998 44.45329103308916" height="44.45329103308916" width="244.43135999999998"><g><svg viewBox="0 0 244.43135999999998 44.45329103308916" height="44.45329103308916" width="244.43135999999998"><g><svg viewBox="0 0 244.43135999999998 44.45329103308916" height="44.45329103308916" width="244.43135999999998"><g id="textblocktransform"><svg viewBox="0 0 244.43135999999998 44.45329103308916" height="44.45329103308916" width="244.43135999999998" id="textblock"><g><svg viewBox="0 0 244.43135999999998 44.45329103308916" height="44.45329103308916" width="244.43135999999998"><g transform="matrix(1,0,0,1,0,0)"><svg width="244.43135999999998" viewBox="2.7 -35.5 197.94 36" height="44.45329103308916" data-palette-color="#b42318"><path d="M17.35 0.5L17.35 0.5Q12.9 0.5 9.7-0.98 6.5-2.45 4.7-5.53 2.9-8.6 2.75-13.2L2.75-13.2Q2.7-15.35 2.7-17.45 2.7-19.55 2.75-21.75L2.75-21.75Q2.9-26.3 4.75-29.35 6.6-32.4 9.83-33.95 13.05-35.5 17.35-35.5L17.35-35.5Q21.65-35.5 24.9-33.95 28.15-32.4 30-29.35 31.85-26.3 32-21.75L32-21.75Q32.1-19.55 32.1-17.45 32.1-15.35 32-13.2L32-13.2Q31.85-8.6 30.05-5.53 28.25-2.45 25.03-0.98 21.8 0.5 17.35 0.5ZM17.35-5.25L17.35-5.25Q20.6-5.25 22.65-7.18 24.7-9.1 24.85-13.45L24.85-13.45Q24.95-15.65 24.95-17.53 24.95-19.4 24.85-21.55L24.85-21.55Q24.75-24.45 23.78-26.28 22.8-28.1 21.15-28.93 19.5-29.75 17.35-29.75L17.35-29.75Q15.25-29.75 13.6-28.93 11.95-28.1 10.98-26.28 10-24.45 9.9-21.55L9.9-21.55Q9.85-19.4 9.85-17.53 9.85-15.65 9.9-13.45L9.9-13.45Q10.05-9.1 12.1-7.18 14.15-5.25 17.35-5.25ZM52.15 0.5L52.15 0.5Q47.5 0.5 44.27-1.13 41.05-2.75 39.35-5.78 37.65-8.8 37.45-13.05L37.45-13.05Q37.4-15.1 37.4-17.45 37.4-19.8 37.45-21.95L37.45-21.95Q37.65-26.15 39.37-29.2 41.1-32.25 44.32-33.88 47.55-35.5 52.15-35.5L52.15-35.5Q55.55-35.5 58.25-34.6 60.95-33.7 62.85-32.13 64.75-30.55 65.8-28.45 66.85-26.35 66.9-23.9L66.9-23.9Q66.95-23.45 66.62-23.15 66.3-22.85 65.85-22.85L65.85-22.85 61.1-22.85Q60.55-22.85 60.2-23.13 59.85-23.4 59.7-24.05L59.7-24.05Q58.9-27.35 56.95-28.55 55-29.75 52.1-29.75L52.1-29.75Q48.75-29.75 46.75-27.88 44.75-26 44.6-21.7L44.6-21.7Q44.45-17.6 44.6-13.3L44.6-13.3Q44.75-9 46.75-7.13 48.75-5.25 52.1-5.25L52.1-5.25Q55-5.25 56.97-6.48 58.95-7.7 59.7-10.95L59.7-10.95Q59.85-11.65 60.2-11.9 60.55-12.15 61.1-12.15L61.1-12.15 65.85-12.15Q66.3-12.15 66.62-11.85 66.95-11.55 66.9-11.1L66.9-11.1Q66.85-8.65 65.8-6.55 64.75-4.45 62.85-2.88 60.95-1.3 58.25-0.4 55.55 0.5 52.15 0.5ZM78.6 0L74.05 0Q73.55 0 73.2-0.35 72.85-0.7 72.85-1.2L72.85-1.2 72.85-33.75Q72.85-34.3 73.2-34.65 73.55-35 74.05-35L74.05-35 87-35Q93.05-35 96.55-32.2 100.05-29.4 100.05-24.05L100.05-24.05Q100.05-20.35 98.22-17.9 96.4-15.45 93.35-14.35L93.35-14.35 100.65-1.6Q100.8-1.3 100.8-1.05L100.8-1.05Q100.8-0.6 100.47-0.3 100.15 0 99.75 0L99.75 0 95.2 0Q94.35 0 93.9-0.45 93.45-0.9 93.2-1.35L93.2-1.35 86.75-13.2 79.8-13.2 79.8-1.2Q79.8-0.7 79.47-0.35 79.15 0 78.6 0L78.6 0ZM79.8-29.45L79.8-18.85 86.85-18.85Q89.9-18.85 91.4-20.23 92.9-21.6 92.9-24.1L92.9-24.1Q92.9-26.6 91.42-28.03 89.95-29.45 86.85-29.45L86.85-29.45 79.8-29.45ZM115.59 0L112.24 0Q111.49 0 111.07-0.43 110.64-0.85 110.49-1.5L110.49-1.5 104.54-33.55Q104.54-33.7 104.52-33.8 104.49-33.9 104.49-33.95L104.49-33.95Q104.49-34.4 104.82-34.7 105.14-35 105.54-35L105.54-35 109.94-35Q111.19-35 111.34-34L111.34-34 115.49-11.35 119.99-26Q120.14-26.4 120.52-26.83 120.89-27.25 121.64-27.25L121.64-27.25 124.34-27.25Q125.14-27.25 125.49-26.83 125.84-26.4 125.94-26L125.94-26 130.49-11.4 134.64-34Q134.79-35 136.04-35L136.04-35 140.44-35Q140.84-35 141.14-34.7 141.44-34.4 141.44-33.95L141.44-33.95Q141.44-33.9 141.44-33.8 141.44-33.7 141.39-33.55L141.39-33.55 135.44-1.5Q135.34-0.85 134.89-0.43 134.44 0 133.69 0L133.69 0 130.34 0Q129.59 0 129.17-0.4 128.74-0.8 128.59-1.25L128.59-1.25 122.99-17.95 117.39-1.25Q117.19-0.8 116.79-0.4 116.39 0 115.59 0L115.59 0ZM157.89 0.5L157.89 0.5Q152.34 0.5 149.09-2.7 145.84-5.9 145.59-11.8L145.59-11.8Q145.54-12.3 145.54-13.08 145.54-13.85 145.59-14.3L145.59-14.3Q145.79-18.1 147.32-20.83 148.84-23.55 151.54-25.03 154.24-26.5 157.89-26.5L157.89-26.5Q161.94-26.5 164.69-24.83 167.44-23.15 168.84-20.18 170.24-17.2 170.24-13.3L170.24-13.3 170.24-12.25Q170.24-11.75 169.89-11.4 169.54-11.05 168.99-11.05L168.99-11.05 152.39-11.05Q152.39-11.05 152.39-10.9 152.39-10.75 152.39-10.65L152.39-10.65Q152.44-8.9 153.07-7.43 153.69-5.95 154.92-5.05 156.14-4.15 157.84-4.15L157.84-4.15Q159.24-4.15 160.19-4.58 161.14-5 161.74-5.55 162.34-6.1 162.59-6.45L162.59-6.45Q163.04-7.05 163.32-7.18 163.59-7.3 164.14-7.3L164.14-7.3 168.44-7.3Q168.94-7.3 169.27-7 169.59-6.7 169.54-6.25L169.54-6.25Q169.49-5.45 168.72-4.3 167.94-3.15 166.49-2.05 165.04-0.95 162.87-0.23 160.69 0.5 157.89 0.5ZM152.39-15.4L152.39-15.25 163.44-15.25 163.44-15.4Q163.44-17.35 162.79-18.82 162.14-20.3 160.89-21.13 159.64-21.95 157.89-21.95L157.89-21.95Q156.14-21.95 154.89-21.13 153.64-20.3 153.02-18.82 152.39-17.35 152.39-15.4L152.39-15.4ZM189.94 0.5L189.94 0.5Q187.04 0.5 185.11-0.5 183.19-1.5 181.94-3.05L181.94-3.05 181.94-1.2Q181.94-0.7 181.61-0.35 181.29 0 180.74 0L180.74 0 176.79 0Q176.29 0 175.94-0.35 175.59-0.7 175.59-1.2L175.59-1.2 175.59-34.3Q175.59-34.8 175.94-35.15 176.29-35.5 176.79-35.5L176.79-35.5 181.04-35.5Q181.59-35.5 181.91-35.15 182.24-34.8 182.24-34.3L182.24-34.3 182.24-23.2Q183.49-24.65 185.36-25.58 187.24-26.5 189.94-26.5L189.94-26.5Q192.59-26.5 194.54-25.6 196.49-24.7 197.81-23.08 199.14-21.45 199.84-19.3 200.54-17.15 200.59-14.65L200.59-14.65Q200.64-13.75 200.64-13.03 200.64-12.3 200.59-11.4L200.59-11.4Q200.49-8.8 199.79-6.63 199.09-4.45 197.79-2.85 196.49-1.25 194.54-0.38 192.59 0.5 189.94 0.5ZM188.09-4.85L188.09-4.85Q190.24-4.85 191.44-5.78 192.64-6.7 193.19-8.2 193.74-9.7 193.84-11.5L193.84-11.5Q193.89-13 193.84-14.5L193.84-14.5Q193.74-16.3 193.19-17.8 192.64-19.3 191.44-20.23 190.24-21.15 188.09-21.15L188.09-21.15Q186.09-21.15 184.84-20.25 183.59-19.35 182.94-17.98 182.29-16.6 182.24-15.1L182.24-15.1Q182.19-14.2 182.19-13.18 182.19-12.15 182.24-11.25L182.24-11.25Q182.34-9.7 182.91-8.22 183.49-6.75 184.76-5.8 186.04-4.85 188.09-4.85Z" opacity="1" transform="matrix(1,0,0,1,0,0)" fill="#ffffff" class="wordmark-text-0" data-fill-palette-color="primary" id="text-0"></path></svg></g></svg></g></svg></g></svg></g></svg></g></svg></g></svg></g><path d="M186.979 95.373L186.979 33.847 7.472 33.847 7.472 213.353 186.979 213.353 186.979 151.827 182.97 151.827 182.97 209.344 11.481 209.344 11.481 37.856 182.97 37.856 182.97 95.373Z" fill="#ffffff" stroke="transparent" data-fill-palette-color="tertiary"></path></svg></g><defs></defs></svg><rect width="395.52" height="247.2" fill="none" stroke="none" visibility="hidden"></rect></g></svg></g></svg>
