<svg width="20" height="20" viewBox="0 0 20 20" fill="none" xmlns="http://www.w3.org/2000/svg">
<g id="triangle-warning">
<g id="alert/alert triangle open large">
<path id="Combined Shape" d="M10.8796 2.76654C11.1368 2.92433 11.352 3.14442 11.5064 3.40739L18.1162 14.6703C18.6355 15.5552 18.3549 16.7028 17.4894 17.2337C17.2054 17.408 16.8804 17.5 16.5492 17.5H3.32945C2.32015 17.5 1.50195 16.6635 1.50195 15.6316C1.50195 15.293 1.59197 14.9607 1.76238 14.6703L8.37225 3.40739C8.89153 2.52256 10.0141 2.23564 10.8796 2.76654ZM9.93931 4.36867L3.32945 15.6316H16.5492L9.93931 4.36867ZM9.93931 12.829C10.444 12.829 10.8531 13.2473 10.8531 13.7632C10.8531 14.2792 10.444 14.6974 9.93931 14.6974C9.43467 14.6974 9.02557 14.2792 9.02557 13.7632C9.02557 13.2473 9.43467 12.829 9.93931 12.829ZM9.93931 7.22389C10.444 7.22389 10.8531 7.64214 10.8531 8.15808V10.9607C10.8531 11.4766 10.444 11.8948 9.93931 11.8948C9.43467 11.8948 9.02557 11.4766 9.02557 10.9607V8.15808C9.02557 7.64214 9.43467 7.22389 9.93931 7.22389Z" fill="#EF971B"/>
</g>
</g>
</svg>
