<?xml version="1.0" encoding="UTF-8"?><svg id="Layer_1" xmlns="http://www.w3.org/2000/svg" viewBox="0 0 295.85 151.5"><g id="get_curious_1"><path d="m11.4,101.35c3.06-7.84,9.14-12.52,17.45-12.52s13.66,5.6,16.32,12.39l10.5-5.24c-3.43-11.57-14.16-20.03-26.82-20.03s-23.36,8.44-26.81,19.98l9.35,5.43Z" fill="#4f37e2" stroke-width="0"/><path d="m28.86,72.89c-15.4,0-27.93-12.53-27.93-27.93s12.53-27.93,27.93-27.93,27.93,12.53,27.93,27.93-12.53,27.93-27.93,27.93Zm0-42.85c-8.23,0-14.92,6.69-14.92,14.92s6.69,14.92,14.92,14.92,14.92-6.69,14.92-14.92-6.69-14.92-14.92-14.92Z" fill="#4f37e2" stroke-width="0"/><path d="m44.4,42.88l.07-29.21h0c6.9.09,12.42,6.41,12.32,14.11v.65s-.19,14.61-.19,14.61l-12.2-.15Z" fill="#4f37e2" stroke-width="0"/><path d="m92.15,46.18c-3.03,0-5.72-.72-8.09-2.17-2.36-1.45-4.23-3.43-5.61-5.95-1.38-2.52-2.06-5.34-2.06-8.46s.69-5.92,2.06-8.4c1.38-2.48,3.25-4.45,5.61-5.92,2.36-1.47,5.06-2.2,8.09-2.2,2.43,0,4.59.47,6.47,1.41,1.88.94,3.37,2.24,4.47,3.89,1.1,1.65,1.7,3.6,1.79,5.85v10.8c-.09,2.2-.7,4.14-1.82,5.81-1.12,1.68-2.63,2.98-4.51,3.92-1.88.94-4.01,1.41-6.4,1.41Zm.41,15.69c-3.58,0-6.72-.64-9.43-1.93-2.71-1.28-4.86-3.05-6.47-5.3l5.85-5.85c1.24,1.51,2.65,2.66,4.23,3.44,1.58.78,3.48,1.17,5.68,1.17,2.75,0,4.92-.7,6.5-2.1,1.58-1.4,2.37-3.34,2.37-5.82v-8.4l1.58-7.23-1.45-7.36v-8.74h9.29v31.59c0,3.3-.78,6.18-2.34,8.64-1.56,2.45-3.71,4.38-6.43,5.78-2.73,1.4-5.86,2.1-9.39,2.1Zm1.38-24.15c1.61,0,3-.35,4.2-1.07,1.19-.71,2.12-1.66,2.79-2.86.66-1.19,1-2.59,1-4.2s-.32-2.95-.96-4.16c-.64-1.21-1.56-2.17-2.75-2.86-1.19-.69-2.62-1.03-4.27-1.03-1.56,0-2.96.34-4.2,1.03-1.24.69-2.19,1.65-2.86,2.89-.67,1.24-1,2.62-1,4.13s.34,2.9,1.03,4.16c.69,1.26,1.63,2.24,2.82,2.92,1.19.69,2.59,1.03,4.2,1.03Z" fill="#101828" stroke-width="0"/><path d="m134.54,47.83c-3.49,0-6.61-.75-9.36-2.24s-4.92-3.55-6.5-6.19c-1.58-2.64-2.37-5.61-2.37-8.91s.77-6.33,2.3-8.95,3.65-4.68,6.33-6.19c2.68-1.51,5.68-2.27,8.98-2.27s6.04.71,8.5,2.13c2.45,1.42,4.39,3.38,5.82,5.88,1.42,2.5,2.13,5.36,2.13,8.57,0,.6-.05,1.22-.14,1.86-.09.64-.21,1.35-.34,2.13h-28.15v-6.81l23.95-.07-3.92,2.89c-.05-1.97-.38-3.62-1-4.95-.62-1.33-1.5-2.34-2.65-3.03-1.15-.69-2.57-1.03-4.27-1.03s-3.27.4-4.58,1.2c-1.31.8-2.31,1.92-2.99,3.34-.69,1.42-1.03,3.12-1.03,5.09s.37,3.82,1.1,5.26c.73,1.45,1.8,2.56,3.2,3.34,1.4.78,3.04,1.17,4.92,1.17,1.7,0,3.22-.29,4.58-.86,1.35-.57,2.54-1.41,3.54-2.51l5.37,5.37c-1.56,1.93-3.51,3.37-5.85,4.33-2.34.96-4.86,1.45-7.57,1.45Z" fill="#101828" stroke-width="0"/><path d="m152.23,21.88v-8.12h24.71v8.12h-24.71Zm7.71,25.19V0h9.29v47.07h-9.29Z" fill="#101828" stroke-width="0"/><path d="m94.35,104.72c-3.35,0-6.39-.76-9.12-2.27-2.73-1.51-4.89-3.59-6.47-6.23-1.58-2.64-2.37-5.61-2.37-8.91s.79-6.2,2.37-8.84c1.58-2.64,3.74-4.71,6.47-6.23,2.73-1.51,5.79-2.27,9.19-2.27,2.62,0,5.02.47,7.23,1.41,2.2.94,4.1,2.31,5.71,4.09l-5.99,6.06c-.87-1.01-1.89-1.74-3.06-2.2-1.17-.46-2.47-.69-3.89-.69-1.65,0-3.12.36-4.4,1.07-1.28.71-2.28,1.72-2.99,3.03-.71,1.31-1.07,2.83-1.07,4.58s.35,3.2,1.07,4.51c.71,1.31,1.71,2.34,2.99,3.1s2.75,1.14,4.4,1.14c1.47,0,2.8-.25,3.99-.76,1.19-.5,2.22-1.26,3.1-2.27l5.99,6.06c-1.7,1.83-3.65,3.23-5.85,4.2-2.2.96-4.63,1.45-7.29,1.45Z" fill="#101828" stroke-width="0"/><path d="m126.7,104.72c-2.94,0-5.55-.63-7.85-1.89s-4.07-3-5.33-5.23c-1.26-2.22-1.89-4.76-1.89-7.6v-19.34h9.29v19.13c0,1.33.23,2.48.69,3.44.46.96,1.12,1.69,2,2.17.87.48,1.93.72,3.17.72,1.83,0,3.26-.55,4.27-1.65,1.01-1.1,1.51-2.66,1.51-4.68v-19.13h9.36v19.34c0,2.89-.64,5.45-1.93,7.67-1.29,2.23-3.06,3.96-5.33,5.2-2.27,1.24-4.92,1.86-7.95,1.86Z" fill="#101828" stroke-width="0"/><path d="m148.93,103.96v-33.31h9.36v33.31h-9.36Zm9.36-18.37l-3.72-2.55c.5-4.04,1.75-7.23,3.75-9.57,2-2.34,4.83-3.51,8.5-3.51,1.65,0,3.11.26,4.37.79s2.4,1.37,3.41,2.51l-5.78,6.81c-.46-.55-1.04-.96-1.75-1.24-.71-.28-1.55-.41-2.51-.41-1.84,0-3.34.58-4.51,1.75s-1.75,2.97-1.75,5.4Z" fill="#101828" stroke-width="0"/><path d="m182.37,65.5c-1.47,0-2.7-.52-3.68-1.55s-1.48-2.28-1.48-3.75.49-2.72,1.48-3.75,2.21-1.55,3.68-1.55c1.56,0,2.82.52,3.78,1.55.96,1.03,1.45,2.28,1.45,3.75s-.48,2.72-1.45,3.75c-.96,1.03-2.23,1.55-3.78,1.55Zm-4.68,38.47v-33.31h9.36v33.31h-9.36Z" fill="#101828" stroke-width="0"/><path d="m210.58,104.72c-3.35,0-6.38-.77-9.08-2.31-2.71-1.54-4.85-3.63-6.43-6.3-1.58-2.66-2.37-5.6-2.37-8.81s.79-6.25,2.37-8.84c1.58-2.59,3.73-4.66,6.43-6.19,2.71-1.54,5.73-2.31,9.08-2.31s6.43.76,9.12,2.27c2.68,1.51,4.82,3.58,6.4,6.19s2.37,5.57,2.37,8.88-.78,6.15-2.34,8.81c-1.56,2.66-3.69,4.76-6.4,6.3-2.71,1.54-5.76,2.31-9.15,2.31Zm0-8.67c1.65,0,3.12-.38,4.4-1.14s2.27-1.79,2.96-3.1c.69-1.31,1.03-2.83,1.03-4.58s-.37-3.2-1.1-4.51c-.73-1.31-1.72-2.32-2.96-3.03-1.24-.71-2.68-1.07-4.34-1.07s-3.11.37-4.37,1.1c-1.26.73-2.24,1.74-2.92,3.03s-1.03,2.8-1.03,4.54c0,1.65.34,3.14,1.03,4.47.69,1.33,1.66,2.37,2.92,3.13,1.26.76,2.72,1.14,4.37,1.14Z" fill="#101828" stroke-width="0"/><path d="m248.36,104.72c-2.94,0-5.55-.63-7.85-1.89s-4.07-3-5.33-5.23c-1.26-2.22-1.89-4.76-1.89-7.6v-19.34h9.29v19.13c0,1.33.23,2.48.69,3.44.46.96,1.12,1.69,2,2.17.87.48,1.93.72,3.17.72,1.83,0,3.26-.55,4.27-1.65,1.01-1.1,1.51-2.66,1.51-4.68v-19.13h9.36v19.34c0,2.89-.64,5.45-1.93,7.67-1.29,2.23-3.06,3.96-5.33,5.2-2.27,1.24-4.92,1.86-7.95,1.86Z" fill="#101828" stroke-width="0"/><path d="m282.15,104.72c-1.88,0-3.73-.24-5.54-.72-1.81-.48-3.5-1.18-5.06-2.1s-2.89-2.02-3.99-3.3l5.51-5.57c1.15,1.29,2.46,2.26,3.96,2.92,1.49.67,3.15,1,4.99,1,1.42,0,2.5-.22,3.23-.65.73-.44,1.1-1.04,1.1-1.82,0-.87-.4-1.56-1.2-2.06-.8-.5-1.84-.93-3.1-1.27-1.26-.34-2.59-.73-3.99-1.17-1.4-.43-2.74-1-4.03-1.69-1.29-.69-2.33-1.67-3.13-2.96-.8-1.28-1.2-2.96-1.2-5.02s.53-3.89,1.58-5.47c1.06-1.58,2.56-2.81,4.51-3.68,1.95-.87,4.23-1.31,6.85-1.31,2.8,0,5.33.48,7.6,1.45,2.27.96,4.12,2.41,5.54,4.34l-5.5,5.57c-1.01-1.19-2.16-2.08-3.44-2.65-1.29-.57-2.64-.86-4.06-.86-1.33,0-2.33.2-2.99.58-.67.39-1,.98-1,1.75,0,.73.4,1.34,1.21,1.82.8.48,1.83.88,3.1,1.2,1.26.32,2.59.7,3.99,1.14,1.4.44,2.74,1.04,4.03,1.82,1.28.78,2.32,1.81,3.1,3.1s1.17,2.96,1.17,5.02c0,3.26-1.19,5.84-3.58,7.74-2.39,1.9-5.6,2.86-9.63,2.86Z" fill="#101828" stroke-width="0"/></g><path d="m8.85,126.75v1.82H0v-1.82h8.85Zm-6.08,18v-20.64c0-.97.22-1.79.67-2.45s1.04-1.17,1.76-1.51,1.5-.52,2.31-.52c.55,0,1,.04,1.37.13s.65.18.86.26l-.61,1.83c-.16-.05-.35-.1-.57-.16s-.51-.09-.86-.09c-.91,0-1.61.25-2.1.76s-.74,1.23-.74,2.18v20.2h-2.1Z" fill="#475467" stroke-width="0"/><path d="m19.27,145.12c-1.55,0-2.93-.39-4.12-1.18s-2.12-1.88-2.79-3.28-1.01-3.01-1.01-4.83.34-3.47,1.01-4.87,1.6-2.5,2.79-3.28,2.56-1.18,4.12-1.18,2.93.39,4.11,1.18,2.12,1.88,2.79,3.28,1.01,3.02,1.01,4.86-.34,3.44-1.01,4.83-1.6,2.49-2.79,3.28-2.56,1.18-4.12,1.18Zm0-1.91c1.25,0,2.31-.34,3.18-1.01s1.53-1.57,1.97-2.68.67-2.35.67-3.69-.22-2.58-.67-3.7-1.11-2.03-1.97-2.71-1.93-1.02-3.18-1.02-2.3.34-3.17,1.02-1.53,1.58-1.98,2.71-.67,2.36-.67,3.7.22,2.57.67,3.69,1.11,2.01,1.97,2.68,1.93,1.01,3.18,1.01Z" fill="#475467" stroke-width="0"/><path d="m31.77,144.75v-18h2.03v2.77h.15c.36-.91.99-1.64,1.88-2.2s1.91-.84,3.04-.84c.17,0,.36,0,.57.01s.39.02.53.02v2.12c-.09-.02-.26-.04-.49-.07s-.49-.05-.76-.05c-.94,0-1.77.2-2.5.59s-1.31.94-1.73,1.63-.63,1.49-.63,2.38v11.62h-2.09Z" fill="#475467" stroke-width="0"/><path d="m43.53,144.75v-18h2.03v2.77h.19c.36-.93.96-1.66,1.8-2.2s1.85-.8,3.03-.8c1.24,0,2.26.29,3.06.87s1.4,1.38,1.8,2.4h.15c.41-1,1.07-1.79,1.99-2.38s2.03-.88,3.35-.88c1.67,0,2.99.53,3.96,1.58s1.45,2.58,1.45,4.6v12.06h-2.09v-12.06c0-1.42-.36-2.49-1.09-3.2s-1.68-1.07-2.87-1.07c-1.38,0-2.43.42-3.18,1.27s-1.11,1.91-1.11,3.21v11.85h-2.13v-12.25c0-1.22-.34-2.2-1.02-2.95s-1.64-1.12-2.87-1.12c-.83,0-1.57.2-2.23.61s-1.18.97-1.56,1.69-.57,1.55-.57,2.49v11.53h-2.09Z" fill="#475467" stroke-width="0"/><path d="m79.12,145.12c-1.68,0-3.13-.39-4.36-1.18s-2.17-1.88-2.84-3.27-1-3-1-4.82.33-3.42,1-4.83,1.59-2.52,2.78-3.32,2.55-1.2,4.11-1.2c.98,0,1.92.18,2.82.53s1.72.9,2.44,1.63,1.29,1.65,1.72,2.75.63,2.41.63,3.92v1.03h-14.06v-1.84h11.93c0-1.16-.23-2.2-.7-3.12s-1.11-1.66-1.93-2.2-1.78-.81-2.85-.81c-1.14,0-2.14.3-3.01.91s-1.54,1.41-2.03,2.41-.74,2.09-.74,3.28v1.1c0,1.43.25,2.68.74,3.74s1.2,1.89,2.12,2.48,2,.88,3.25.88c.85,0,1.6-.13,2.24-.4s1.19-.62,1.63-1.07.78-.94,1-1.48l1.98.64c-.27.76-.72,1.46-1.34,2.1s-1.39,1.15-2.32,1.54-1.99.58-3.19.58Z" fill="#475467" stroke-width="0"/><path d="m91.01,144.75v-18h2.03v2.77h.15c.36-.91.99-1.64,1.88-2.2s1.91-.84,3.04-.84c.17,0,.36,0,.57.01s.39.02.53.02v2.12c-.09-.02-.26-.04-.49-.07s-.49-.05-.76-.05c-.94,0-1.77.2-2.5.59s-1.31.94-1.73,1.63-.63,1.49-.63,2.38v11.62h-2.09Z" fill="#475467" stroke-width="0"/><path d="m104.86,120.75v24h-2.09v-24h2.09Z" fill="#475467" stroke-width="0"/><path d="m111.82,151.5c-.41,0-.8-.04-1.16-.12s-.64-.16-.86-.26l.56-1.84c.71.22,1.34.3,1.9.24s1.05-.31,1.48-.75.81-1.12,1.15-2.02l.66-1.83-6.62-18.18h2.26l5.34,15.25h.16l5.34-15.25h2.26l-7.62,20.85c-.32.87-.71,1.59-1.18,2.17s-1.01,1.02-1.62,1.3-1.3.43-2.06.43Z" fill="#475467" stroke-width="0"/><path d="m154.08,120.75h2.19v15.89c0,1.63-.38,3.09-1.15,4.38s-1.83,2.3-3.19,3.04-2.95,1.11-4.75,1.11-3.38-.37-4.75-1.11-2.43-1.75-3.2-3.04-1.15-2.74-1.15-4.37v-15.89h2.19v15.74c0,1.27.29,2.41.86,3.4s1.37,1.78,2.41,2.35,2.25.86,3.64.86,2.61-.29,3.64-.86,1.84-1.35,2.41-2.35.85-2.13.85-3.4v-15.74Z" fill="#475467" stroke-width="0"/><path d="m174.3,130.7l-1.91.54c-.19-.54-.45-1.03-.8-1.46s-.79-.79-1.34-1.04-1.23-.39-2.04-.39c-1.22,0-2.22.29-3,.87s-1.17,1.32-1.17,2.24c0,.77.27,1.4.8,1.88s1.36.86,2.48,1.14l2.72.67c1.51.37,2.64.95,3.39,1.75s1.13,1.8,1.13,3c0,1.02-.28,1.92-.84,2.71s-1.35,1.41-2.35,1.86-2.17.67-3.49.67c-1.76,0-3.21-.4-4.35-1.19s-1.87-1.94-2.19-3.44l2-.49c.26,1.07.76,1.88,1.52,2.43s1.75.82,2.98.82c1.38,0,2.49-.31,3.32-.93s1.24-1.4,1.24-2.34c0-.73-.24-1.34-.73-1.83s-1.22-.86-2.2-1.1l-2.94-.7c-1.56-.38-2.72-.97-3.47-1.78s-1.12-1.82-1.12-3.02c0-.99.27-1.87.81-2.62s1.28-1.35,2.23-1.78,2.02-.64,3.23-.64c1.65,0,2.97.37,3.96,1.12s1.7,1.77,2.14,3.08Z" fill="#475467" stroke-width="0"/><path d="m186.41,145.12c-1.68,0-3.13-.39-4.36-1.18s-2.17-1.88-2.84-3.27-1-3-1-4.82.33-3.42,1-4.83,1.59-2.52,2.78-3.32,2.55-1.2,4.11-1.2c.98,0,1.92.18,2.82.53s1.72.9,2.44,1.63,1.29,1.65,1.72,2.75.63,2.41.63,3.92v1.03h-14.06v-1.84h11.93c0-1.16-.23-2.2-.7-3.12s-1.11-1.66-1.93-2.2-1.78-.81-2.85-.81c-1.14,0-2.14.3-3.01.91s-1.54,1.41-2.03,2.41-.74,2.09-.74,3.28v1.1c0,1.43.25,2.68.74,3.74s1.2,1.89,2.12,2.48,2,.88,3.25.88c.85,0,1.6-.13,2.24-.4s1.19-.62,1.63-1.07.78-.94,1-1.48l1.98.64c-.27.76-.72,1.46-1.34,2.1s-1.39,1.15-2.32,1.54-1.99.58-3.19.58Z" fill="#475467" stroke-width="0"/><path d="m198.29,144.75v-18h2.03v2.77h.15c.36-.91.99-1.64,1.88-2.2s1.91-.84,3.04-.84c.17,0,.36,0,.57.01s.39.02.53.02v2.12c-.09-.02-.26-.04-.49-.07-.23-.03-.49-.05-.76-.05-.94,0-1.77.2-2.5.59s-1.31.94-1.73,1.63-.63,1.49-.63,2.38v11.62h-2.09Z" fill="#475467" stroke-width="0"/><path d="m223.52,126.75c-.13-1.34-.72-2.4-1.77-3.19s-2.36-1.18-3.95-1.18c-1.12,0-2.1.19-2.95.57s-1.51.91-1.99,1.59-.72,1.44-.72,2.3c0,.63.14,1.19.41,1.66s.64.88,1.11,1.22.98.63,1.55.87,1.14.45,1.72.61l2.53.73c.77.21,1.53.48,2.3.81s1.47.74,2.1,1.24,1.15,1.1,1.54,1.82.58,1.57.58,2.57c0,1.28-.33,2.43-1,3.46s-1.62,1.83-2.86,2.43-2.73.9-4.46.9c-1.63,0-3.05-.27-4.25-.81s-2.15-1.29-2.84-2.26-1.07-2.07-1.16-3.34h2.25c.08.95.39,1.75.94,2.4s1.26,1.15,2.13,1.49,1.85.51,2.93.51c1.2,0,2.26-.2,3.19-.6s1.67-.96,2.2-1.69.8-1.56.8-2.53c0-.81-.21-1.49-.63-2.04s-1.01-1.01-1.76-1.39-1.63-.71-2.62-1l-2.87-.84c-1.88-.56-3.34-1.34-4.38-2.33s-1.56-2.26-1.56-3.8c0-1.29.35-2.42,1.04-3.4s1.63-1.75,2.81-2.3,2.51-.83,3.99-.83,2.81.27,3.96.82,2.06,1.3,2.74,2.26,1.04,2.04,1.08,3.26h-2.12Z" fill="#475467" stroke-width="0"/><path d="m237.91,126.75v1.82h-8.59v-1.82h8.59Zm-5.91-4.31h2.1v17.61c0,.75.13,1.34.39,1.76s.59.73,1.01.9.86.26,1.32.26c.27,0,.51-.02.7-.05s.37-.07.52-.11l.45,1.89c-.2.08-.45.15-.75.22s-.66.1-1.1.1c-.77,0-1.5-.17-2.21-.5s-1.29-.84-1.74-1.5-.68-1.49-.68-2.47v-18.11Z" fill="#475467" stroke-width="0"/><path d="m254.08,137.87v-11.12h2.09v18h-2.09v-2.99h-.16c-.42.92-1.09,1.69-2,2.3s-2.03.92-3.35.92c-1.15,0-2.17-.25-3.06-.76s-1.59-1.24-2.1-2.22-.76-2.18-.76-3.6v-11.66h2.09v11.53c0,1.41.41,2.54,1.24,3.39s1.89,1.28,3.19,1.28c.81,0,1.59-.2,2.34-.59s1.37-.96,1.85-1.72.73-1.68.73-2.78Z" fill="#475467" stroke-width="0"/><path d="m268.16,145.12c-1.48,0-2.77-.39-3.88-1.17s-1.97-1.87-2.6-3.27-.93-3.03-.93-4.89.31-3.47.93-4.87,1.49-2.48,2.61-3.26,2.42-1.17,3.9-1.17c1.09,0,2,.19,2.73.58s1.31.87,1.75,1.44.78,1.12,1.02,1.66h.19v-9.43h2.1v24h-2.04v-3.34h-.25c-.24.55-.59,1.11-1.03,1.68s-1.03,1.06-1.76,1.45-1.64.59-2.74.59Zm.25-1.91c1.16,0,2.16-.32,2.98-.96s1.45-1.52,1.88-2.64.65-2.41.65-3.86-.21-2.71-.64-3.81-1.05-1.97-1.88-2.6-1.82-.94-2.99-.94-2.22.33-3.04.98-1.45,1.53-1.88,2.64-.64,2.36-.64,3.74.21,2.66.64,3.79,1.06,2.02,1.88,2.68,1.83.99,3.03.99Z" fill="#475467" stroke-width="0"/><path d="m283.37,151.5c-.41,0-.8-.04-1.16-.12s-.64-.16-.86-.26l.56-1.84c.71.22,1.34.3,1.9.24s1.05-.31,1.48-.75.81-1.12,1.15-2.02l.66-1.83-6.62-18.18h2.26l5.34,15.25h.16l5.34-15.25h2.26l-7.62,20.85c-.32.87-.71,1.59-1.18,2.17s-1.01,1.02-1.62,1.3-1.3.43-2.06.43Z" fill="#475467" stroke-width="0"/></svg>