<svg width="201" height="62" viewBox="0 0 201 62" fill="none" xmlns="http://www.w3.org/2000/svg">
<g id="jupiter logo 2" clip-path="url(#clip0_1465_9842)">
<path id="Vector" d="M56.8631 33.2141C56.8631 33.2141 53.8328 40.7042 50.0562 40.3583C48.0005 40.1706 47.3502 38.4838 47.3528 37.4522L47.3996 11.978H37.1885V38.0795C37.1796 42.3353 40.2734 46.2287 45.7495 46.4783C50.904 46.7141 56.8542 39.1085 56.8542 39.1085L56.8442 45.6609L67.0071 45.5772L67.0692 11.9831H56.9101L56.8631 33.2141Z" fill="white"/>
<path id="Vector_2" d="M90.9671 12.1307C87.2271 12.1244 83.9346 13.9887 81.6723 16.82L81.6354 11.9824H71.5168L71.4395 58.657L81.6038 58.6736L81.6254 41.7782C83.4909 44.4904 86.9699 46.56 90.9038 46.5676C97.9339 46.5803 104.073 39.4335 104.092 29.3732C104.111 19.3129 97.9972 12.1434 90.9671 12.1307ZM87.753 42.1522C85.2374 42.1522 82.5988 39.137 81.6354 36.6847L81.6621 21.9833C82.6342 19.5346 85.2829 16.5335 87.7974 16.5335C91.4094 16.5399 93.0798 20.7741 93.0635 29.3516C93.0469 37.9292 91.3638 42.1584 87.753 42.1522Z" fill="white"/>
<path id="Vector_3" d="M107.745 45.7882H117.899L117.963 11.9824H107.745V45.7882Z" fill="white"/>
<path id="Vector_4" d="M156.594 12.0542C146.276 12.0542 139.877 19.955 139.865 29.2423C139.846 39.3026 147.002 46.0793 155.891 46.4911C159.959 46.6788 165.62 44.1464 168.311 41.3824L166.662 38.9984C161.294 43.6358 158.906 43.0743 158.906 43.0743C152.199 43.063 151.004 37.835 151.022 28.871L170.755 28.9064C170.235 18.2313 164.028 12.0529 156.594 12.0542ZM160.887 25.7595L151.024 25.7417C151.034 20.4531 152.524 13.7956 156.587 13.7956C159.713 13.7956 161.223 21.4303 160.887 25.7595Z" fill="white"/>
<path id="Vector_5" d="M140.882 11.8146L135.284 11.7994L135.301 0.56543L120.633 14.9957L124.953 15.0058L124.984 45.7446H135.197L135.276 14.9336L140.874 14.9488L140.882 11.8146Z" fill="white"/>
<path id="Vector_6" d="M192.37 11.6994C189.22 12.6119 186.205 15.1213 184.142 17.656L184.153 11.8464H173.935V45.6523H179.327L184.097 45.6611L184.13 23.8077V22.794C185.507 20.467 187.918 17.1541 190.386 17.3797C192.033 17.5318 193.401 19.3403 193.408 21.0069L200.497 14.0617C200.633 13.9249 196.577 10.4827 192.37 11.6994Z" fill="white"/>
<path id="Vector_7" d="M21.5021 44.8703C21.5021 49.7256 17.5671 53.6604 12.7119 53.6604C7.85661 53.6604 3.92169 49.7256 3.92169 44.8703C3.92169 44.7359 3.9264 44.6025 3.9323 44.4703C4.07506 46.4585 5.73163 48.0265 7.75633 48.0265C9.80461 48.0265 11.4777 46.4207 11.5851 44.3983H11.591V33.3073H0.5V44.3983C0.531857 53.2983 7.75633 60.5039 16.6645 60.5039C25.5525 60.5039 32.764 53.3301 32.8278 44.4573L32.829 0.56543H21.5021V44.3393V44.8703Z" fill="white"/>
</g>
<defs>
<clipPath id="clip0_1465_9842">
<rect width="200" height="60.8696" fill="white" transform="translate(0.5 0.56543)"/>
</clipPath>
</defs>
</svg>
