<svg width="25" height="24" viewBox="0 0 25 24" fill="none" xmlns="http://www.w3.org/2000/svg">
<g id="LinkedIn-black 1">
<g id="Icons">
<g id="Black">
<path id="LinkedIn" fill-rule="evenodd" clip-rule="evenodd" d="M22.0999 20.9303H17.8564V14.6516C17.8564 13.0082 17.1927 11.8863 15.733 11.8863C14.6166 11.8863 13.9957 12.6434 13.7067 13.373C13.5983 13.6349 13.6152 13.9997 13.6152 14.3646V20.9303H9.41129C9.41129 20.9303 9.46548 9.80825 9.41129 8.79725H13.6152V10.7014C13.8636 9.86886 15.2069 8.6806 17.3507 8.6806C20.0103 8.6806 22.0999 10.4258 22.0999 14.1839V20.9303ZM5.15992 7.27962H5.13283C3.77817 7.27962 2.8999 6.35211 2.8999 5.17643C2.8999 3.97788 3.80413 3.06982 5.18588 3.06982C6.56651 3.06982 7.41542 3.97561 7.44252 5.17301C7.44252 6.34869 6.5665 7.27962 5.15992 7.27962ZM3.38418 8.79725H7.12643V20.9303H3.38418V8.79725Z" fill="#3C20B4"/>
</g>
</g>
</g>
</svg>
